<svg xmlns="http://www.w3.org/2000/svg" xmlns:xlink="http://www.w3.org/1999/xlink" width="280.014" height="100.59" viewBox="0 0 280.014 100.59"><defs><style>.a{fill:#0a0a0a;}.b{opacity:0.553;}.c{filter:url(#a);}</style><filter id="a" x="0" y="0" width="82.215" height="100.59" filterUnits="userSpaceOnUse"><feOffset dy="15" input="SourceAlpha"/><feGaussianBlur stdDeviation="10" result="b"/><feFlood flood-opacity="0.161"/><feComposite operator="in" in2="b"/><feComposite in="SourceGraphic"/></filter></defs><g transform="translate(-542.16 -458.058)"><g transform="translate(601.021 476.206)"><path class="a" d="M2.175,0V-20.3H6.583V-4.263h9.744V0ZM25.027.348a6.65,6.65,0,0,1-5.162-2.059A8.146,8.146,0,0,1,17.98-7.424a8.085,8.085,0,0,1,1.9-5.655,6.614,6.614,0,0,1,5.147-2.088,6.629,6.629,0,0,1,4.814,1.8A6.939,6.939,0,0,1,31.7-8.149a15.332,15.332,0,0,1-.116,2.175H22.1a2.712,2.712,0,0,0,.87,2.074,3.093,3.093,0,0,0,2.059.681,4.149,4.149,0,0,0,3.335-1.566L30.8-2.349A7.147,7.147,0,0,1,25.027.348Zm-2.9-9.483h5.539A2.539,2.539,0,0,0,24.853-11.6,2.669,2.669,0,0,0,23-10.948,2.808,2.808,0,0,0,22.127-9.135ZM43.558,0V-1.1A4.755,4.755,0,0,1,39.875.348,6.164,6.164,0,0,1,35.858-.914a4.386,4.386,0,0,1-1.551-3.611,4.016,4.016,0,0,1,1.8-3.523,7.255,7.255,0,0,1,4.2-1.233,8.12,8.12,0,0,1,3.248.522V-9.57a1.913,1.913,0,0,0-.638-1.551,2.667,2.667,0,0,0-1.769-.536A8.5,8.5,0,0,0,36.4-10.092L35.09-13.311a11.011,11.011,0,0,1,6.351-1.856q6.293,0,6.293,5.8V0ZM40.687-3.19a4.492,4.492,0,0,0,2.871-1.044V-5.568a8.746,8.746,0,0,0-2.523-.348q-2.61,0-2.61,1.421Q38.425-3.19,40.687-3.19ZM51.794,0V-14.819H56v1.334a3.3,3.3,0,0,1,1.044-1.131,2.917,2.917,0,0,1,1.769-.551,3.887,3.887,0,0,1,2.929,1.247l-.551,3.828a4.042,4.042,0,0,0-2.639-1.015Q56-11.107,56-8.033V0Zm21.2,0V-7.714a4.791,4.791,0,0,0-.536-2.6,2.023,2.023,0,0,0-1.812-.8,2.346,2.346,0,0,0-1.986.812,4.141,4.141,0,0,0-.624,2.523V0h-4.2V-14.819h4.2v1.363a4.946,4.946,0,0,1,4.031-1.711,5.384,5.384,0,0,1,3.6,1.305A5.268,5.268,0,0,1,77.2-9.628V0Zm9.338,0-4.35-20.3h4.553L84.651-9.483a3,3,0,0,1,.087.551,3.573,3.573,0,0,0,.058.464q.029-.145.058-.493a3.722,3.722,0,0,1,.087-.58L87.522-20.3h3.857l2.61,10.788q.058.261.116.638a4.565,4.565,0,0,1,.058.464q.029-.116.058-.319t.058-.377l.058-.348L96.425-20.3h4.553L96.6,0H92.423L89.581-11.281q-.058-.261-.174-1.131a6.749,6.749,0,0,1-.174,1.1L86.507,0Zm26.216.348a6.408,6.408,0,0,1-5.031-2.059,8.223,8.223,0,0,1-1.842-5.684,8.248,8.248,0,0,1,1.856-5.684,6.374,6.374,0,0,1,5.017-2.088,6.3,6.3,0,0,1,4.974,2.088,8.29,8.29,0,0,1,1.841,5.684,8.265,8.265,0,0,1-1.827,5.684A6.328,6.328,0,0,1,108.547.348Zm0-4.06a2.218,2.218,0,0,0,1.929-.972,4.666,4.666,0,0,0,.681-2.711,4.737,4.737,0,0,0-.681-2.726,2.208,2.208,0,0,0-1.929-.986,2.291,2.291,0,0,0-1.943.986,4.521,4.521,0,0,0-.725,2.726,4.454,4.454,0,0,0,.725,2.711A2.3,2.3,0,0,0,108.547-3.712ZM118.987,0V-14.819h4.2v1.334a3.3,3.3,0,0,1,1.044-1.131A2.917,2.917,0,0,1,126-15.167a3.887,3.887,0,0,1,2.929,1.247l-.551,3.828a4.042,4.042,0,0,0-2.639-1.015q-2.552,0-2.552,3.074V0Zm26.158,0h-4.582l-3.915-7.453-1.1,1.015V0h-4.205V-18.966l4.205-1.972v9.831l3.741-3.712h4.988l-4.524,4.379Zm19.517,0h-3.857l-7.656-10.759a11.08,11.08,0,0,1-.87-1.537,9.743,9.743,0,0,1,.087,1.537V0h-4.35V-20.3h4.031L159.5-9.657a7.469,7.469,0,0,1,.841,1.508,11.194,11.194,0,0,1-.087-1.537V-20.3h4.408Zm10.469.348A6.408,6.408,0,0,1,170.1-1.711a8.223,8.223,0,0,1-1.842-5.684,8.248,8.248,0,0,1,1.856-5.684,6.374,6.374,0,0,1,5.017-2.088,6.3,6.3,0,0,1,4.973,2.088,8.29,8.29,0,0,1,1.842,5.684,8.265,8.265,0,0,1-1.827,5.684A6.328,6.328,0,0,1,175.131.348Zm0-4.06a2.218,2.218,0,0,0,1.928-.972,4.666,4.666,0,0,0,.682-2.711,4.737,4.737,0,0,0-.682-2.726,2.208,2.208,0,0,0-1.928-.986,2.291,2.291,0,0,0-1.943.986,4.521,4.521,0,0,0-.725,2.726,4.454,4.454,0,0,0,.725,2.711A2.3,2.3,0,0,0,175.131-3.712ZM188.442,0l-4.263-14.819h4.147l1.537,6.09q.058.232.2,1.044t.232,1.131q.058-.2.232-1.044t.261-1.131l1.566-6.09h3.77l1.537,6.09q.058.232.232,1.044t.261,1.131q.058-.261.189-1.088a8.439,8.439,0,0,1,.217-1.088l1.624-6.09h4.147L200.042,0H196.33l-1.566-6.728q0-.087-.217-1.015t-.276-1.392q-.058.348-.174.856t-.232.971l-.145.58L192.154,0Z" transform="translate(0.003 27.852)"/><path class="a" d="M3.447-4.986V0H2.079V-4.986H.27V-6.3H5.256v1.314ZM12.15,0H10.782V-3.123q0-.09.009-.2-.045.108-.081.18L9.18.108,7.632-3.123q-.027-.063-.072-.2V0H6.192V-6.3H7.587L9.054-3.087q.063.144.153.4.09-.252.153-.4L10.872-6.3H12.15Z" transform="translate(209.003 26.852)"/></g><g transform="translate(563.613 473.058)"><path class="b" d="M-1353.124-2458.1l8.6,25.6a35.475,35.475,0,0,1,9.9,2.466,66.109,66.109,0,0,1,10,5.108l-5.761-27.17s-6.214-4.184-10.673-5.209S-1353.124-2458.1-1353.124-2458.1Z" transform="translate(1353.124 2468.091)"/><g class="c" transform="matrix(1, 0, 0, 1, -21.45, -15)"><path d="M-1317.676-2499.478l4.819,26.209s9.229,4.026,13.122,7.745,4.273,6.635,4.273,6.635l-1.383-26.88a39.139,39.139,0,0,0-10-9.344A34.772,34.772,0,0,0-1317.676-2499.478Z" transform="translate(1347.68 2514.48)"/></g></g></g></svg>