<svg xmlns="http://www.w3.org/2000/svg" width="183.297" height="182.257" viewBox="0 0 183.297 182.257">
  <g id="Ok-amico" transform="translate(-18.473 -30.19)">
    <g id="freepik--Floor--inject-44" transform="translate(18.472 105.75)">
      <path id="freepik--floor--inject-44-2" data-name="freepik--floor--inject-44" d="M45.313,310.538c-35.787-20.839-35.787-54.627,0-75.45s93.812-20.839,129.612,0,35.787,54.627,0,75.45S81.1,331.38,45.313,310.538Z" transform="translate(-18.472 -219.465)" fill="#f5f5f5"/>
    </g>
    <g id="freepik--Shadow--inject-44" transform="translate(45.835 120.569)">
      <ellipse id="freepik--shadow--inject-44-2" data-name="freepik--shadow--inject-44" cx="28.12" cy="16.371" rx="28.12" ry="16.371" transform="translate(0 44.517)" fill="#e0e0e0"/>
      <path id="freepik--shadow--inject-44-3" data-name="freepik--shadow--inject-44" d="M40.919,1.238c22.2-.079,40.159,8.853,40.12,19.951S62.974,41.346,40.777,41.425.618,32.571.657,21.474,18.723,1.317,40.919,1.238Z" transform="translate(37.559 36.134) rotate(-28.34)" fill="#e0e0e0"/>
    </g>
    <g id="freepik--Plants--inject-44" transform="translate(46.885 133.234)">
      <g id="freepik--plants--inject-44-2" data-name="freepik--plants--inject-44" transform="translate(108.252)">
        <path id="Path_1477" data-name="Path 1477" d="M366.944,305.638c3.9-4.687,10.007-7.741,16.874-9.545,6.785-1.776,8-5.988,3.5-7.349-5.094-1.549-11.451,1.293-15.552,5.25-7.141,6.894-8.039,12.16-8.039,12.16Z" transform="translate(-363.73 -288.313)"/>
        <path id="Path_1478" data-name="Path 1478" d="M366.944,305.638c3.9-4.687,10.007-7.741,16.874-9.545,6.785-1.776,8-5.988,3.5-7.349-5.094-1.549-11.451,1.293-15.552,5.25-7.141,6.894-8.039,12.16-8.039,12.16Z" transform="translate(-363.73 -288.313)" opacity="0.15"/>
        <path id="Path_1479" data-name="Path 1479" d="M366.477,308.459a.211.211,0,0,1-.087,0,.2.2,0,0,1-.1-.115.2.2,0,0,1,.01-.153c5.787-11.976,18.6-14.922,21.707-14.7a.2.2,0,0,1,.182.212.2.2,0,0,1-.214.184c-3.04-.232-15.624,2.687-21.32,14.479A.205.205,0,0,1,366.477,308.459Z" transform="translate(-365.27 -291.418)" fill="#fff"/>
        <path id="Path_1480" data-name="Path 1480" d="M363.73,323.013a1.091,1.091,0,0,0,.548.947,1.073,1.073,0,0,0,1.087-.013c3.626-2.128,8.914-3.305,17.472-.846,4.552,1.305,6.793.431,7.75-1.437,1.069-2.076-1.188-4.084-3.76-5.03-8.76-3.23-16.665-1.026-23.1,5.417Z" transform="translate(-363.73 -304.443)"/>
        <path id="Path_1481" data-name="Path 1481" d="M364.684,327.225a.2.2,0,0,1-.15-.064.2.2,0,0,1,0-.283c7.564-6.818,19.281-5.489,23.714-2.83a.2.2,0,0,1-.2.343c-4.354-2.607-15.833-3.9-23.247,2.794a.213.213,0,0,1-.115.04Z" transform="translate(-364.181 -308.483)" fill="#fff"/>
      </g>
      <g id="freepik--plants--inject-44-3" data-name="freepik--plants--inject-44" transform="translate(0 15.116)">
        <path id="Path_1482" data-name="Path 1482" d="M117.524,345.529c-3.325-5.118-9.033-8.878-15.643-11.485-6.523-2.571-7.24-6.894-2.616-7.717,5.241-.93,11.222,2.651,14.832,7.066,6.286,7.7,6.559,13.042,6.559,13.042Z" transform="translate(-93.905 -326.179)"/>
        <path id="Path_1483" data-name="Path 1483" d="M117.524,345.529c-3.325-5.118-9.033-8.878-15.643-11.485-6.523-2.571-7.24-6.894-2.616-7.717,5.241-.93,11.222,2.651,14.832,7.066,6.286,7.7,6.559,13.042,6.559,13.042Z" transform="translate(-93.905 -326.179)" opacity="0.15"/>
        <path id="Path_1484" data-name="Path 1484" d="M124.725,348.351a.222.222,0,0,0,.087,0,.2.2,0,0,0,.123-.255c-4.354-12.579-16.72-17.03-19.839-17.166a.2.2,0,0,0-.206.188.207.207,0,0,0,.19.212c3.048.128,15.2,4.523,19.479,16.91A.2.2,0,0,0,124.725,348.351Z" transform="translate(-99.095 -329.033)" fill="#fff"/>
        <path id="Path_1485" data-name="Path 1485" d="M117.029,363.117a1.66,1.66,0,0,1-.942,1.324,1.635,1.635,0,0,1-1.611-.126c-3.357-2.268-8.356-3.741-16.546-2.4-4.671.755-6.793-.4-7.521-2.351-.815-2.188,1.662-3.908,4.326-4.543,9.076-2.164,16.669.966,22.3,8.124Z" transform="translate(-90.251 -343.104)"/>
        <path id="Path_1486" data-name="Path 1486" d="M120.935,368.244a.189.189,0,0,0,.154-.048.2.2,0,0,0,0-.283c-6.729-7.669-18.505-7.745-23.22-5.633a.2.2,0,0,0-.1.265.2.2,0,0,0,.263.1c4.619-2.072,16.178-2,22.76,5.529A.181.181,0,0,0,120.935,368.244Z" transform="translate(-94.782 -347.157)" fill="#fff"/>
      </g>
    </g>
    <g id="freepik--check-mark--inject-44" transform="translate(85.431 56.116)">
      <g id="freepik--check-mark--inject-44-2" data-name="freepik--check-mark--inject-44">
        <g id="freepik--Circle--inject-44" transform="translate(0 9.513)">
          <path id="Path_1487" data-name="Path 1487" d="M264.1,129.826h0l-.063-.032h0l-15.089-8.759h0l-.091-.044h0c-7.05-3.593-16.455-2.511-26.572,4.084-20.322,13.254-35.807,43.761-34.588,68.14.606,12.148,5.253,20.479,12.271,24.144h0l.059.032h0l15.093,8.763h0l.071.04h0c7.05,3.593,16.463,2.527,26.588-4.076,20.322-13.254,35.807-43.761,34.588-68.14C275.77,141.822,271.123,133.49,264.1,129.826Z" transform="translate(-187.63 -118.966)" fill="#37474f"/>
          <path id="Path_1488" data-name="Path 1488" d="M214.615,285.784,200.06,277.3h0l-.071-.044c-7.018-3.673-11.661-12-12.271-24.136-.542-10.874,2.24-22.958,7.283-34.18l.1-.247,14.994,9.006c-5.051,11.222-7.826,23.306-7.283,34.18C203.385,273.768,207.846,282,214.615,285.784Z" transform="translate(-187.643 -178.879)" fill="#263238"/>
          <path id="Path_1489" data-name="Path 1489" d="M264.807,235.282c20.322-13.254,35.807-43.761,34.588-68.14S280.711,133.748,260.389,147s-35.811,43.761-34.592,68.136S244.485,248.535,264.807,235.282Z" transform="translate(-210.649 -132.137)" fill="#455a64"/>
        </g>
        <path id="freepik--shadow--inject-44-4" data-name="freepik--shadow--inject-44" d="M296.823,141.43l-25.472,52.923-5.482-5.988a8.957,8.957,0,0,0-12.735-.512,9.144,9.144,0,0,0-.507,12.845l14.445,15.779a8.935,8.935,0,0,0,6.131,2.906h.5a8.983,8.983,0,0,0,8.107-5.118l29.212-60.679C308.025,146.847,303.037,142.672,296.823,141.43Z" transform="translate(-225.454 -122.949)" fill="#37474f"/>
        <path id="Path_1490" data-name="Path 1490" d="M321.7,96.187c-.158-.092-.325-.18-.491-.259a7.8,7.8,0,0,0-10.458,3.649l-32.411,67.33-1.845-2a7.624,7.624,0,0,0-1.837-1.481c-.966-.559-5.075-2.958-5.74-3.345a7.781,7.781,0,0,0-10.03,1.9,7.943,7.943,0,0,0,.364,10.286L273.7,188.048a7.79,7.79,0,0,0,1.864,1.5c.942.539,5.035,2.934,5.708,3.325a7.794,7.794,0,0,0,10.961-3.381l38.344-79.653a7.94,7.94,0,0,0-3.123-10.284Z" transform="translate(-229.65 -95.135)"/>
        <path id="Path_1491" data-name="Path 1491" d="M321.7,96.187c-.158-.092-.325-.18-.491-.259a7.8,7.8,0,0,0-10.458,3.649l-32.411,67.33-1.845-2a7.624,7.624,0,0,0-1.837-1.481c-.966-.559-5.075-2.958-5.74-3.345a7.781,7.781,0,0,0-10.03,1.9,7.943,7.943,0,0,0,.364,10.286L273.7,188.048a7.79,7.79,0,0,0,1.864,1.5c.942.539,5.035,2.934,5.708,3.325a7.794,7.794,0,0,0,10.961-3.381l38.344-79.653a7.94,7.94,0,0,0-3.123-10.284Z" transform="translate(-229.65 -95.135)" opacity="0.15"/>
        <path id="Path_1492" data-name="Path 1492" d="M282.125,305.314c-.665-.4-4.75-2.794-5.7-3.325a7.81,7.81,0,0,1-1.864-1.5l-14.444-15.777a7.875,7.875,0,0,1-1.492-2.4l5.744,3.341a7.678,7.678,0,0,0,1.5,2.4l14.44,15.777a7.973,7.973,0,0,0,1.821,1.481Z" transform="translate(-230.52 -207.595)" opacity="0.15"/>
        <path id="Path_1493" data-name="Path 1493" d="M350.621,103.525a7.883,7.883,0,0,0-1.813,2.427l-33.337,69.254-4.821-5.27,32.411-67.33a7.786,7.786,0,0,1,1.817-2.427Z" transform="translate(-261.955 -98.166)" opacity="0.15"/>
        <path id="freepik--Check--inject-44" d="M336.011,104.311a7.812,7.812,0,0,0-10.458,3.649l-33.337,69.254-6.662-7.281a7.774,7.774,0,0,0-10.885-.257,7.936,7.936,0,0,0-.594,10.964l14.44,15.781a7.791,7.791,0,0,0,12.785-1.908l38.344-79.653a7.931,7.931,0,0,0-3.634-10.547Z" transform="translate(-238.699 -100.173)"/>
      </g>
    </g>
    <g id="freepik--Character--inject-44" transform="translate(42.833 42.709)">
      <g id="freepik--character--inject-44-2" data-name="freepik--character--inject-44" transform="translate(0 0)">
        <path id="Path_1494" data-name="Path 1494" d="M110.58,109.016c-3.02,0-5.086.8-7.232,3.872-1.979,2.826-7.378,12.248-7.378,12.248s-3.958-8.192-4.354-9.824-.372-2.359,0-3.07a6.446,6.446,0,0,0,1-2.794c.154-1.964.629-3.645.194-3.7-1.207-.068-1.255,1.5-1.888,2.419a.756.756,0,0,1-1.219-.132,9.923,9.923,0,0,1-.249-2.092,8.643,8.643,0,0,1,.17-1.07,4.616,4.616,0,0,0,1.385.04c.522.826.879,1.174,1.607.838a4.853,4.853,0,0,0-.792-2,.539.539,0,0,0-.325-.248,6.1,6.1,0,0,0-2.684-.076.5.5,0,0,0-.344.192,6.641,6.641,0,0,0-.792,1.6c-.051.172-.21.168-.249.02a33.478,33.478,0,0,1-.4-5.948c0-1.01-1.461-1.17-1.512.275a47.141,47.141,0,0,0,.1,5.816c0,.176-.174.259-.245.068a24.371,24.371,0,0,1-1.136-6.307c-.071-.958-1.607-1.114-1.583.232a34.435,34.435,0,0,0,.918,7.078c.048.168-.107.315-.222.124a23.1,23.1,0,0,1-1.718-4.391c-.329-1.158-1.86-.862-1.583.579a34.707,34.707,0,0,0,2.375,8.184c1.211,2.5,2.256,3.745,2.858,5.7s3.091,13.062,5.755,17.389c2.086,3.393,4.473,3.078,7.042,1.289s11.748-14.687,11.748-14.687Z" transform="translate(-80.016 -83.686)" fill="#9e6767"/>
        <path id="Path_1495" data-name="Path 1495" d="M120.32,163.868a12.6,12.6,0,0,1,1.484,3.96,6.955,6.955,0,0,0-.91-4.958Z" transform="translate(-104.366 -122.422)" fill="#874c4c"/>
        <path id="Path_1496" data-name="Path 1496" d="M137.348,124.879a8.08,8.08,0,0,0-5.577,1.142c-2.13,1.353-2.874,3.238-3.907,4.886s-4.6,7.489-4.6,7.489,1.31,5.545,6.519,6.687l7.8-10.675Z" transform="translate(-106.143 -99.549)" fill="#455a64"/>
        <path id="Path_1497" data-name="Path 1497" d="M151.542,369.228c.4-.052.922,1.309.93,1.753a5.734,5.734,0,0,1-1.017,2.291,16.143,16.143,0,0,0-1.92,3.445,11.65,11.65,0,0,1-2.106,3.645,8.979,8.979,0,0,1-9.579,3.489,4.556,4.556,0,0,1-2.248-1.146,1.49,1.49,0,0,1-.344-1.525Z" transform="translate(-113.342 -246.4)" fill="#263238"/>
        <path id="Path_1498" data-name="Path 1498" d="M141.78,361.479v.044a3.152,3.152,0,0,0,.032,1.122,7.889,7.889,0,0,1-1.872,6.144,11.74,11.74,0,0,1-2.312,1.884c-2.5,1.6-2.771,2.687-2.419,4.315.839,1.9,6.511,3.05,9.773.228a9.684,9.684,0,0,0,3.107-4.26,30.251,30.251,0,0,1,1.647-3.513c.629-1.2,1.825-2.547,1.86-3.78a7.463,7.463,0,0,0-1.29-2.978c-.594-.954-1.207-1.86-1.742-1.757l.15.539c-.447.467-1.092.643-1.48,1.2a10.114,10.114,0,0,0-.764,2.355.271.271,0,0,1-.146.18.2.2,0,0,1-.21-.108.584.584,0,0,1-.044-.248l-.036-1.162a.984.984,0,0,0-.166-.631c-.309-.351-1.069-.311-1.492-.327a16.18,16.18,0,0,0-1.706.1.814.814,0,0,0-.554.148A.986.986,0,0,0,141.78,361.479Z" transform="translate(-113.286 -240.208)" fill="#37474f"/>
        <path id="Path_1499" data-name="Path 1499" d="M130.1,252.175c1.318,4.371,7.481,19.505,7.849,20.415l1.227,3a4.574,4.574,0,0,0,2.5.108c.131,1.449.348,3.721.431,4.866a19.407,19.407,0,0,1-.139,4.287c-.241,1.118-.522,2.291-.732,3.413-.091.5-.182.994-.257,1.493a2.519,2.519,0,0,0,.123,1.569,1.939,1.939,0,0,0,.491.559,4.329,4.329,0,0,0,3.1.918,3.208,3.208,0,0,0,1.647-.551c.958-.691,1.294-1.892,1.781-2.914a4.078,4.078,0,0,0,.4-2.415c.032-.83.261-2.938.59-5.142s1.746-9.948,2.426-17.665a63.82,63.82,0,0,0,0-10.3c5.407-14.814,7.814-23.625,8.522-28.543a40.73,40.73,0,0,0,.281-9.657l-26.3.639C131.938,229.967,128.328,246.315,130.1,252.175ZM142.942,228.67Z" transform="translate(-109.988 -154.114)" fill="#9e6767"/>
        <path id="Path_1500" data-name="Path 1500" d="M129.074,243.063c.542-5.038,4.279-24.4,4.279-24.4h26.489s.17,3.717.123,5.425a51.313,51.313,0,0,1-1.54,8.783c-.946,3.956-4.453,15.122-5.146,16.767s-1.979,6.415-1.979,6.415c.649,8.958-1.041,17-2.308,27.685,0,0-.368,1.441-4.121,1.158-3.65-.279-4.386-1.637-4.386-1.637l-.241-9.218a7.859,7.859,0,0,1-3.167.335s-7.841-19.525-8.221-20.7S128.532,248.1,129.074,243.063Z" transform="translate(-109.376 -155.941)"/>
        <path id="Path_1501" data-name="Path 1501" d="M129.074,243.063c.542-5.038,4.279-24.4,4.279-24.4h26.489s.17,3.717.123,5.425a51.313,51.313,0,0,1-1.54,8.783c-.946,3.956-4.453,15.122-5.146,16.767s-1.979,6.415-1.979,6.415c.649,8.958-1.041,17-2.308,27.685,0,0-.368,1.441-4.121,1.158-3.65-.279-4.386-1.637-4.386-1.637l-.241-9.218a7.859,7.859,0,0,1-3.167.335s-7.841-19.525-8.221-20.7S128.532,248.1,129.074,243.063Z" transform="translate(-109.376 -155.941)" opacity="0.45"/>
        <path id="Path_1502" data-name="Path 1502" d="M151.168,241.064c-3.753-3.409-4.588-6.124-4.588-6.124a25.135,25.135,0,0,0,6.606,5.337s-3.562,18.97-3.3,22.87,1.215,20.671,1.215,20.671c0,.16-2.525-17.737-2.6-19.162C148.33,260.884,151.168,241.064,151.168,241.064Z" transform="translate(-120.232 -165.721)" opacity="0.2"/>
        <path id="Path_1503" data-name="Path 1503" d="M152.107,405.46c.368.108.321,1.218.154,1.633a5.039,5.039,0,0,1-1.7,1.776,8.356,8.356,0,0,0-2.514,2.727,12.777,12.777,0,0,1-3.939,3.88,9.43,9.43,0,0,1-6.927.978c-2.486-.711-2.715-1.325-2.7-2.272Z" transform="translate(-112.926 -268.169)" fill="#263238"/>
        <path id="Path_1504" data-name="Path 1504" d="M143.876,390.819c-.653,3.194-1.789,5.541-4.421,7.513-2.1,1.573-3.618,2.371-5.292,3.772-.709.6-.768,1.872-.226,3.246a7.561,7.561,0,0,0,4.9,1.437,6.861,6.861,0,0,0,4.726-1.389,12.737,12.737,0,0,0,1.892-1.6c1.16-1.174,1.979-2.623,2.8-3.553s2.648-1.88,3.167-3a7.445,7.445,0,0,0-.024-3.254c-.174-1.114.162-3.07-.368-3.194l-.075.8c-.044.18-.154.271-.526.4a2.725,2.725,0,0,1-1.017.028.606.606,0,0,0-.685.2c-.356.423-.451,1.022-.91,1.373a.261.261,0,0,1-.1.056.11.11,0,0,1-.115,0,.165.165,0,0,1-.02-.132l.131-1.2a1.367,1.367,0,0,0,0-.359.8.8,0,0,0-.4-.527,4.235,4.235,0,0,0-1.065-.443,6.185,6.185,0,0,0-1.187-.2,3.742,3.742,0,0,0-1.184.036Z" transform="translate(-112.374 -259.333)" fill="#455a64"/>
        <path id="Path_1505" data-name="Path 1505" d="M164.416,126.152a16.088,16.088,0,0,1,1.979,4.619,76.329,76.329,0,0,1,1.662,15.537c0,7.054-.942,18.483-.942,18.483-8.119,4.1-21.213,1.677-26.976-2.327.234-1.269.431-7.944.887-12.347.3-7.553.558-11.509.61-14.87.107-6.715,3.42-10.184,5.938-10.236l6.357.1Z" transform="translate(-116.341 -99.676)"/>
        <path id="Path_1506" data-name="Path 1506" d="M198.525,219.47c-1.207,1-3.563,2.926-4.01,3.9-.5,1.11-.792,2.794-1.128,3.425s.17.95.867.723,1.112-.822,1.651-2.275a6.88,6.88,0,0,1,2.035-2.591Z" transform="translate(-148.447 -156.427)" fill="#874c4c"/>
        <path id="Path_1507" data-name="Path 1507" d="M195.344,177.5c.289.563.962.567,1.583.615a4.987,4.987,0,0,0,2.244-.255,4.1,4.1,0,0,0,2.157-1.513,11.9,11.9,0,0,0,1.116-3.014c.728-2.136,2.9-3.677,3.254-5.94a14.941,14.941,0,0,1,.4-2.615c.154-.343,3.721-6.535,5-9.218,1.219-2.579,2.134-3.792,1.025-6.89s-4.881-14-7.553-17.789c-1.512-2.148-3.915-2.763-6.828-3.014-2.217,5.82.36,11.836.36,11.836l5.882,11.409s-2.28,7.856-3.7,12.224a14.484,14.484,0,0,1-2.094,3.309,26.678,26.678,0,0,0-1.607,2.232,7.867,7.867,0,0,0-.594,2.455A40.672,40.672,0,0,0,195.344,177.5Z" transform="translate(-149.675 -101.394)" fill="#9e6767"/>
        <path id="Path_1508" data-name="Path 1508" d="M199.243,127.79a13.87,13.87,0,0,1,5.047.994c1.314.671,2.229,1.5,3.741,4.555s3.725,9,3.725,9-.732,4.483-7.762,5.645l-4.75-8.834A17.8,17.8,0,0,1,199.243,127.79Z" transform="translate(-151.481 -101.346)" fill="#455a64"/>
        <path id="Path_1509" data-name="Path 1509" d="M148.534,73.725a8.9,8.9,0,0,1,.538,1.178,6.93,6.93,0,0,0,.891,1.481,15,15,0,0,0,3.357,2.583,3.568,3.568,0,0,0,2.375.758,12.248,12.248,0,0,1,2.715.144l3.115.283-.174,3.3s.4-.874.914-1.92c.451-.9,2.343-5.453,2.351-5.473.938-2.256,2.05-5.266.93-7.637a3.126,3.126,0,0,0-1.219-1.409,2.874,2.874,0,0,0,.1-1.126,3.62,3.62,0,0,0-1.655-2.643,7.837,7.837,0,0,0-2.937-1.222,18.367,18.367,0,0,0-4.251-.475,24.885,24.885,0,0,0-4.172.483,14.659,14.659,0,0,1-2.324.244,4.44,4.44,0,0,1-1.005-.048,11.371,11.371,0,0,1-1.215-.443.279.279,0,0,0-.218,0,.264.264,0,0,0-.115.188,3.58,3.58,0,0,0,.645,2.878,1.8,1.8,0,0,1-.515-.152,4.151,4.151,0,0,1-.534-.3,3.031,3.031,0,0,1-.752-.727.218.218,0,0,0-.123-.092.25.25,0,0,0-.19.12,2.814,2.814,0,0,0-.4,2.208,4.806,4.806,0,0,0,1.029,2.04,2.815,2.815,0,0,0-.143,2.679,3.733,3.733,0,0,0,.7,1.014c.356.367.792.667,1.152,1.01a6.754,6.754,0,0,1,1.12,1.074Z" transform="translate(-119.035 -61.549)" fill="#37474f"/>
        <path id="Path_1510" data-name="Path 1510" d="M160.9,78.162a6.092,6.092,0,0,0,.226,1.764,3.447,3.447,0,0,0,.883,1.321,10.118,10.118,0,0,1,1.227,1.25,5.3,5.3,0,0,1,.689,2.3,1.6,1.6,0,0,0,.6,1.238c.847.531,1.354-.5,1.805-1a1.876,1.876,0,0,1,3.111.647,4,4,0,0,1-2.09,4.846c-2.395.675-2.917-.97-2.917-.97l-.459,8.623a6.343,6.343,0,0,1-6.61,2.994c-1.8-.355-2.791-1.629-1.1-3.473l.091-2.627a14.737,14.737,0,0,1-3.2.06c-1.738-.327-2.6-1.816-3.068-3.737-.748-3.086-1.092-6.331-.162-13.282.424-.236,2.138,1.11,4.75,1.289A11.966,11.966,0,0,0,160.9,78.162Z" transform="translate(-121.917 -71.487)" fill="#9e6767"/>
        <path id="Path_1511" data-name="Path 1511" d="M166.946,115.856a29.572,29.572,0,0,0,5.3-1.349,4.5,4.5,0,0,0,1.94-1.816,6.21,6.21,0,0,1-1.14,2.18c-1.037,1.25-6.139,2.032-6.139,2.032Z" transform="translate(-132.514 -92.274)" fill="#874c4c"/>
        <path id="Path_1512" data-name="Path 1512" d="M172.15,84.933l1.825.563a1.012,1.012,0,0,0-.657-1.234.927.927,0,0,0-.725.085A.941.941,0,0,0,172.15,84.933Z" transform="translate(-135.68 -75.173)" fill="#263238"/>
        <path id="Path_1513" data-name="Path 1513" d="M166.448,107.84l-2.688.918a1.407,1.407,0,0,0,.688.852,1.387,1.387,0,0,0,1.085.095A1.5,1.5,0,0,0,166.448,107.84Z" transform="translate(-130.611 -89.36)" fill="#874c4c"/>
        <path id="Path_1514" data-name="Path 1514" d="M167.662,109.5a1.586,1.586,0,0,0-1.532,1.2,1.327,1.327,0,0,0,.835,0,1.47,1.47,0,0,0,.958-1.174A1.454,1.454,0,0,0,167.662,109.5Z" transform="translate(-132.043 -90.358)" fill="#f28f8f"/>
        <path id="Path_1515" data-name="Path 1515" d="M151.564,85.148l1.856-.244a.916.916,0,0,0-.348-.618.9.9,0,0,0-.682-.18A.96.96,0,0,0,151.564,85.148Z" transform="translate(-123.24 -75.096)" fill="#263238"/>
        <path id="Path_1516" data-name="Path 1516" d="M180.4,88.73l6.124,2.1a2.234,2.234,0,0,0-1.765.9l-4.334-1.661Z" transform="translate(-140.665 -77.879)" fill="#263238"/>
        <path id="Path_1517" data-name="Path 1517" d="M153.877,93.646a.75.75,0,0,0,.185.549.738.738,0,0,0,.519.249.787.787,0,0,0,.571-1.3.738.738,0,0,0-.519-.249.751.751,0,0,0-.756.747Z" transform="translate(-124.639 -80.385)" fill="#263238"/>
        <path id="Path_1518" data-name="Path 1518" d="M171.55,93.652a.732.732,0,1,0,.756-.743A.751.751,0,0,0,171.55,93.652Z" transform="translate(-135.318 -80.391)" fill="#263238"/>
        <path id="Path_1519" data-name="Path 1519" d="M144.748,88.623a1.675,1.675,0,0,0,.4.87.8.8,0,0,1,.154.311,15.331,15.331,0,0,0,.546,2.351,2.565,2.565,0,0,0,2.506,1.669,3.533,3.533,0,0,0,.855-.072h.063a2.623,2.623,0,0,0,.7-.275l.04-.028.059-.036.075-.052.067-.056.075-.06a.369.369,0,0,0,.071-.064,1.486,1.486,0,0,0,.135-.14,3.2,3.2,0,0,0,.558-.89c.364-.822.269-1.972.863-2.108h.15c.792,0,.72,1.265,1.187,2.16A3.026,3.026,0,0,0,156.2,94h.226a1.348,1.348,0,0,0,.182,0,2.71,2.71,0,0,0,.424-.06l.131-.032a1.181,1.181,0,0,0,.127-.036l.083-.024a2.5,2.5,0,0,0,.475-.228,1.391,1.391,0,0,0,.158-.108,1.986,1.986,0,0,0,.273-.244,2.8,2.8,0,0,0,.534-.83,14.627,14.627,0,0,0,.479-2.331,1,1,0,0,1,.135-.339,1.6,1.6,0,0,0,.4-.838.734.734,0,0,0-.491-.739l-.431-.056a12.972,12.972,0,0,0-4.271.052c-1.354.371-1.825.8-2.581.8s-1.164-.471-2.45-.894a11.5,11.5,0,0,0-4-.2l-.4.04A.7.7,0,0,0,144.748,88.623Zm8.914.858a1.137,1.137,0,0,1,.4-.315.4.4,0,0,1,.067-.04h.04a2.107,2.107,0,0,1,.19-.092l.178-.072a5.192,5.192,0,0,1,.578-.184l.23-.056c.2-.04.4-.072.594-.092a.894.894,0,0,1,.142,0,3.44,3.44,0,0,1,2.415.471c.3.267.166,1.5.044,2.116v.092a1.119,1.119,0,0,1-.055.251c-.024.092-.028.1-.044.152h0c-.028.084-.055.168-.087.255h0a.859.859,0,0,1-.04.088.449.449,0,0,1-.02.052l-.028.06-.036.072-.044.084c0,.028-.036.056-.055.084a.655.655,0,0,1-.055.088,2.048,2.048,0,0,1-1.825.87,2.514,2.514,0,0,1-1.924-.743h0a3.681,3.681,0,0,1-.661-3.142Zm-7.671-.643a1.186,1.186,0,0,1,.317-.2h.024l.142-.056.087-.028h.21a2.5,2.5,0,0,0,.3-.052h.689a4.619,4.619,0,0,1,.6.056,3.681,3.681,0,0,1,2.157.958,3.061,3.061,0,0,1,.075,1.872,2.863,2.863,0,0,1-.119.463.186.186,0,0,0,0,.036s0,.028,0,.044v.032l-.024.056-.048.112c0,.032-.032.068-.051.1a.235.235,0,0,1,0,.032l-.04.068-.036.056a2.048,2.048,0,0,1-1.94.894,2.3,2.3,0,0,1-.974-.24,2.775,2.775,0,0,1-1.271-2c-.2-.715-.38-1.94-.1-2.208Z" transform="translate(-119.124 -77.325)" fill="#263238"/>
        <path id="Path_1520" data-name="Path 1520" d="M159.217,93.389l-.139,5.134-2.838-.83,2.648-4.347a.731.731,0,0,1,.329.044Z" transform="translate(-126.068 -80.65)" fill="#874c4c"/>
      </g>
    </g>
    <g id="freepik--speech-bubble--inject-44" transform="translate(99.681 30.19)">
      <g id="freepik--speech-bubble--inject-44-2" data-name="freepik--speech-bubble--inject-44">
        <g id="freepik--speech-bubble--inject-44-3" data-name="freepik--speech-bubble--inject-44">
          <ellipse id="Ellipse_1" data-name="Ellipse 1" cx="14.666" cy="12.954" rx="14.666" ry="12.954" transform="translate(1.322)"/>
          <path id="Path_1521" data-name="Path 1521" d="M227.913,81.41a7.7,7.7,0,0,1-4.172,5.988.184.184,0,0,0,.028.347,7.883,7.883,0,0,0,8.115-3.1Z" transform="translate(-223.63 -60.963)"/>
        </g>
        <path id="Path_1522" data-name="Path 1522" d="M238.827,53.714a4.776,4.776,0,0,1,.4-1.645,3.864,3.864,0,0,1,.942-1.337,4.486,4.486,0,0,1,1.473-.906,6.208,6.208,0,0,1,4.026,0,4.525,4.525,0,0,1,1.488.906,3.917,3.917,0,0,1,.934,1.357,4.776,4.776,0,0,1,.4,1.645c.02.447.028.914.028,1.4s0,.946-.028,1.369a4.776,4.776,0,0,1-.4,1.645,3.992,3.992,0,0,1-.942,1.345,4.347,4.347,0,0,1-1.488.906,6.353,6.353,0,0,1-4.026,0,4.3,4.3,0,0,1-1.48-.906,3.932,3.932,0,0,1-.942-1.345,4.776,4.776,0,0,1-.4-1.645c-.02-.423-.032-.882-.032-1.369S238.808,54.161,238.827,53.714Zm6.769,2.695c0-.188.02-.4.032-.623s0-.463,0-.7v-.695c0-.224-.024-.4-.032-.6a2.389,2.389,0,0,0-.162-.715,1.734,1.734,0,0,0-.372-.571,1.677,1.677,0,0,0-.594-.379,2.556,2.556,0,0,0-1.666,0,1.616,1.616,0,0,0-.966.95,2.388,2.388,0,0,0-.162.715,5.351,5.351,0,0,0-.04.6q0,.335,0,.695v.7a5.818,5.818,0,0,0,.04.623,2.1,2.1,0,0,0,.53,1.293,1.863,1.863,0,0,0,1.429.511,1.831,1.831,0,0,0,1.421-.511A2.205,2.205,0,0,0,245.6,56.408Z" transform="translate(-232.783 -41.785)" fill="#fafafa"/>
        <path id="Path_1523" data-name="Path 1523" d="M277,60.267a.277.277,0,0,1,.044.172.346.346,0,0,1-.336.343h-2.478a.625.625,0,0,1-.356-.1,1.52,1.52,0,0,1-.277-.263l-2.929-3.713v3.645a.43.43,0,0,1-.4.423h-2.027a.394.394,0,0,1-.293-.128.4.4,0,0,1-.123-.3V50.3a.4.4,0,0,1,.123-.3.394.394,0,0,1,.293-.128h2.027a.43.43,0,0,1,.4.423v3.285l2.719-3.365a2.884,2.884,0,0,1,.2-.216.575.575,0,0,1,.42-.128h2.407a.346.346,0,0,1,.34.343.269.269,0,0,1-.048.172l-3.8,4.723Z" transform="translate(-250.334 -42.016)" fill="#fafafa"/>
      </g>
    </g>
    <g id="freepik--Icons--inject-44" transform="translate(31.656 45.214)">
      <g id="freepik--like-icon--inject-44" transform="translate(118.031)">
        <path id="Path_1524" data-name="Path 1524" d="M353.784,85.2l-2.221.675-1.6-5.4,2.213-.671Z" transform="translate(-349.96 -75.019)" fill="#e0e0e0"/>
        <path id="Path_1525" data-name="Path 1525" d="M365.276,73.208a1.039,1.039,0,0,1-.629,1.046,1.517,1.517,0,0,1,.313.571c.127.4-.21.978-.879,1.2L359,77.563l-1.492-5.018h0s.859-2.216.9-2.551a8.407,8.407,0,0,0-.534-1.8c-.071-.232.752-.535,1.4-.271a1.164,1.164,0,0,1,.4.291,3.543,3.543,0,0,1,.582.842,3.028,3.028,0,0,1,.309,1.413l3.076-.946a.958.958,0,0,1,.657,0A.878.878,0,0,1,364.544,71a.82.82,0,0,1,.839.571.912.912,0,0,1-.507,1.034A.962.962,0,0,1,365.276,73.208Z" transform="translate(-354.521 -67.824)" fill="#e0e0e0"/>
      </g>
      <g id="freepik--like-icon--inject-44-2" data-name="freepik--like-icon--inject-44" transform="translate(150.825 55.014)">
        <path id="Path_1526" data-name="Path 1526" d="M435.656,222.153l-2.846-.691,1.659-6.922,2.846.691Z" transform="translate(-432.81 -210.985)" fill="#e0e0e0"/>
        <path id="Path_1527" data-name="Path 1527" d="M452.137,216.024a1.3,1.3,0,0,1-1.346.739,1.972,1.972,0,0,1-.02.822,1.336,1.336,0,0,1-1.706.723l-6.515-1.6,1.536-6.431h0s2.339-1.864,2.6-2.2a10.8,10.8,0,0,0,.55-2.3c.071-.307,1.16-.1,1.7.607a1.463,1.463,0,0,1,.269.583,4.5,4.5,0,0,1,.1,1.289,3.875,3.875,0,0,1-.554,1.745l3.935.958a1.214,1.214,0,0,1,.7.443,1.106,1.106,0,0,1-.665,1.768,1.045,1.045,0,0,1,.554,1.162,1.148,1.148,0,0,1-1.207.8A1.207,1.207,0,0,1,452.137,216.024Z" transform="translate(-438.695 -205.634)" fill="#e0e0e0"/>
      </g>
      <g id="freepik--like-icon--inject-44-3" data-name="freepik--like-icon--inject-44" transform="translate(0 47.744)">
        <path id="Path_1528" data-name="Path 1528" d="M76.82,211.861l3.107.942,2.248-7.561-3.1-.942Z" transform="translate(-66.907 -197.562)" fill="#e0e0e0"/>
        <path id="Path_1529" data-name="Path 1529" d="M51.98,195a1.454,1.454,0,0,0,.883,1.465,2.177,2.177,0,0,0-.435.8,1.5,1.5,0,0,0,1.227,1.653l7.125,2.16,2.082-7.038h0s-1.207-3.106-1.267-3.593a11.885,11.885,0,0,1,.748-2.515c.079-.263-1.053-.747-1.979-.375a1.555,1.555,0,0,0-.578.4,4.936,4.936,0,0,0-.815,1.2,4.3,4.3,0,0,0-.435,2l-4.275-1.3a1.327,1.327,0,0,0-.922.032,1.226,1.226,0,0,0-.34,2.068,1.144,1.144,0,0,0-1.187.8,1.285,1.285,0,0,0,.709,1.453A1.358,1.358,0,0,0,51.98,195Z" transform="translate(-51.777 -187.421)" fill="#e0e0e0"/>
      </g>
    </g>
  </g>
</svg>
