<svg xmlns="http://www.w3.org/2000/svg" width="183" height="182.26" viewBox="0 0 183 182.26">
  <g id="Call_center-amico" data-name="Call center-amico" transform="translate(-6.29 -48.469)">
    <g id="freepik--Floor--inject-3" transform="translate(6.29 104.558)">
      <ellipse id="freepik--floor--inject-3-2" data-name="freepik--floor--inject-3" cx="91.5" cy="63.085" rx="91.5" ry="63.085" fill="#f5f5f5"/>
    </g>
    <g id="freepik--Shadows--inject-3" transform="translate(10.857 110.912)">
      <path id="freepik--Shadow--inject-3" d="M19.109,296.169l81.4,53.663a3.115,3.115,0,0,0,3.161,0l42.8-28.216a1.158,1.158,0,0,0,0-2.088L65.079,265.866a3.121,3.121,0,0,0-3.165,0l-42.8,28.22A1.154,1.154,0,0,0,19.109,296.169Z" transform="translate(-18.454 -234.869)" fill="#e0e0e0"/>
      <path id="freepik--shadow--inject-3-2" data-name="freepik--shadow--inject-3" d="M223.708,204.659c3.274,2.182,3.274,5.719,0,7.9a11.549,11.549,0,0,1-11.853,0c-3.274-2.182-3.274-5.719,0-7.9A11.549,11.549,0,0,1,223.708,204.659Z" transform="translate(-137.71 -199.211)" fill="#e0e0e0"/>
      <path id="freepik--shadow--inject-3-3" data-name="freepik--shadow--inject-3" d="M319.229,228.418l-51.564-34a1.82,1.82,0,0,0-1.9-.034l-28.688,18.982a.7.7,0,0,0,0,1.265l12.412,8.166-10.73,8.265c-3.439,2.645-4.179,6.143-1.652,7.806s8.459,1.783,12.176-.317l12.3-7.793,5.151,3.4,21.813,14.4a1.9,1.9,0,0,0,1.919,0l28.767-18.862A.713.713,0,0,0,319.229,228.418Z" transform="translate(-154.075 -194.132)" fill="#e0e0e0"/>
    </g>
    <g id="freepik--character-2--inject-3" transform="translate(14.291 94.566)">
      <g id="freepik--Mobile--inject-3" transform="translate(0 43.554)">
        <g id="freepik--mobile--inject-3-2" data-name="freepik--mobile--inject-3">
          <path id="Path_2150" data-name="Path 2150" d="M147.754,316.163l-37.845,24.945a3.626,3.626,0,0,1-3.946.081L29.774,290.961a4.682,4.682,0,0,1,0-7.9l37.706-24.864a4.284,4.284,0,0,1,4.344,0l75.934,50.066a4.68,4.68,0,0,1,0,7.9Z" transform="translate(-27.6 -257.601)"/>
          <path id="Path_2151" data-name="Path 2151" d="M67.476,258.221,29.77,283.084a4.684,4.684,0,0,0,0,7.9l76.193,50.22a3.751,3.751,0,0,0,1.877.536V281.974L71.8,258.221a4.284,4.284,0,0,0-4.321,0Z" transform="translate(-27.6 -257.621)" opacity="0.5"/>
          <path id="Path_2152" data-name="Path 2152" d="M243.407,373.564l37.845-24.945a4.68,4.68,0,0,0,0-7.9l-39.9-26.3v59.771a3.625,3.625,0,0,0,2.057-.617Z" transform="translate(-161.098 -290.057)" opacity="0.4"/>
          <path id="Path_2153" data-name="Path 2153" d="M110.586,336.661a3.786,3.786,0,0,1-3.833,0L31.336,286.934a2.162,2.162,0,0,1,0-3.888l37.71-24.834a4.291,4.291,0,0,1,4.348,0l75.93,50.057a1.59,1.59,0,0,1,0,2.864Z" transform="translate(-29.174 -257.612)"/>
          <path id="Path_2154" data-name="Path 2154" d="M110.586,336.661a3.786,3.786,0,0,1-3.833,0L31.336,286.934a2.162,2.162,0,0,1,0-3.888l37.71-24.834a4.291,4.291,0,0,1,4.348,0l75.93,50.057a1.59,1.59,0,0,1,0,2.864Z" transform="translate(-29.174 -257.612)" opacity="0.3"/>
          <path id="Path_2155" data-name="Path 2155" d="M118.457,337.8a4.051,4.051,0,0,1-4.13,0L49.435,295.023a1.519,1.519,0,0,1,0-2.722l35.472-23.385a4.1,4.1,0,0,1,4.13,0l64.892,42.778a1.522,1.522,0,0,1,0,2.726Z" transform="translate(-40.709 -263.746)" fill="#37474f"/>
          <path id="Path_2156" data-name="Path 2156" d="M86.848,268.37a3.8,3.8,0,0,0-1.941.553L49.435,292.308a1.519,1.519,0,0,0,0,2.722l7.032,4.634,30.381-22.15Z" transform="translate(-40.709 -263.753)" fill="#263238"/>
          <path id="Path_2157" data-name="Path 2157" d="M89.613,273.044a4.09,4.09,0,0,0-4.13,0L50.007,296.429a2.224,2.224,0,0,0-.537.493,2.122,2.122,0,0,0,.514.459l64.892,42.778a4.051,4.051,0,0,0,4.13,0l35.476-23.38a2.262,2.262,0,0,0,.533-.489,2.145,2.145,0,0,0-.511-.467Z" transform="translate(-41.259 -266.104)"/>
          <path id="Path_2158" data-name="Path 2158" d="M89.613,273.044a4.09,4.09,0,0,0-4.13,0L50.007,296.429a2.224,2.224,0,0,0-.537.493,2.122,2.122,0,0,0,.514.459l64.892,42.778a4.051,4.051,0,0,0,4.13,0l35.476-23.38a2.262,2.262,0,0,0,.533-.489,2.145,2.145,0,0,0-.511-.467Z" transform="translate(-41.259 -266.104)" fill="#fff" opacity="0.75"/>
          <path id="Path_2159" data-name="Path 2159" d="M82.788,291.8l6.289-4.158a.479.479,0,0,0,.041-.857,1.29,1.29,0,0,0-1.314.03l-6.281,4.145a.479.479,0,0,0-.041.857,1.3,1.3,0,0,0,1.307-.017Z" transform="translate(-61.098 -274.177)" fill="#37474f"/>
          <path id="Path_2160" data-name="Path 2160" d="M111.388,280.746a.432.432,0,0,0,0-.857,1.253,1.253,0,0,0-1.273,0,.432.432,0,0,0,0,.857A1.253,1.253,0,0,0,111.388,280.746Z" transform="translate(-78.901 -270.235)" fill="#37474f"/>
          <path id="Path_2161" data-name="Path 2161" d="M118.311,276.84a.445.445,0,0,0,0-.836,1.241,1.241,0,0,0-1.277,0,.445.445,0,0,0,0,.836A1.241,1.241,0,0,0,118.311,276.84Z" transform="translate(-83.274 -268.014)" fill="#37474f"/>
          <path id="Path_2162" data-name="Path 2162" d="M63.868,308.176a.432.432,0,0,0,0-.857,1.253,1.253,0,0,0-1.273,0,.432.432,0,0,0,0,.857A1.253,1.253,0,0,0,63.868,308.176Z" transform="translate(-49.222 -285.906)" fill="#37474f"/>
          <path id="Path_2163" data-name="Path 2163" d="M70.842,304.256a.479.479,0,0,0,0-.857,1.253,1.253,0,0,0-1.273,0,.479.479,0,0,0,0,.857A1.253,1.253,0,0,0,70.842,304.256Z" transform="translate(-53.647 -283.667)" fill="#37474f"/>
          <path id="Path_2164" data-name="Path 2164" d="M80.41,357.652a1.7,1.7,0,0,1,.68,1.286.517.517,0,0,1-.188.454c-.083.051-.375.261-.477.313a.435.435,0,0,1-.488-.064l-8.819-5.822a1.712,1.712,0,0,1-.68-1.286.525.525,0,0,1,.169-.429l.492-.326a.452.452,0,0,1,.492.064Z" transform="translate(-54.354 -311.38)"/>
          <path id="Path_2165" data-name="Path 2165" d="M80.41,357.652a1.7,1.7,0,0,1,.68,1.286.517.517,0,0,1-.188.454c-.083.051-.375.261-.477.313a.435.435,0,0,1-.488-.064l-8.819-5.822a1.712,1.712,0,0,1-.68-1.286.525.525,0,0,1,.169-.429l.492-.326a.452.452,0,0,1,.492.064Z" transform="translate(-54.354 -311.38)" opacity="0.4"/>
          <path id="Path_2166" data-name="Path 2166" d="M79.954,358.355l-8.834-5.826c-.375-.249-.68-.073-.68.39a1.712,1.712,0,0,0,.68,1.286l8.834,5.822c.375.249.68.073.68-.39a1.7,1.7,0,0,0-.68-1.282Z" transform="translate(-54.356 -311.77)"/>
          <path id="Path_2167" data-name="Path 2167" d="M79.954,358.355l-8.834-5.826c-.375-.249-.68-.073-.68.39a1.712,1.712,0,0,0,.68,1.286l8.834,5.822c.375.249.68.073.68-.39a1.7,1.7,0,0,0-.68-1.282Z" transform="translate(-54.356 -311.77)" opacity="0.3"/>
          <path id="Path_2168" data-name="Path 2168" d="M56.689,343.562a1.712,1.712,0,0,1,.68,1.286.507.507,0,0,1-.188.454l-.477.317a.452.452,0,0,1-.488-.064l-4.167-2.748a1.712,1.712,0,0,1-.68-1.286.528.528,0,0,1,.173-.429c.086-.06.405-.274.492-.326a.448.448,0,0,1,.492.06Z" transform="translate(-42.444 -305.087)"/>
          <path id="Path_2169" data-name="Path 2169" d="M56.689,343.562a1.712,1.712,0,0,1,.68,1.286.507.507,0,0,1-.188.454l-.477.317a.452.452,0,0,1-.488-.064l-4.167-2.748a1.712,1.712,0,0,1-.68-1.286.528.528,0,0,1,.173-.429c.086-.06.405-.274.492-.326a.448.448,0,0,1,.492.06Z" transform="translate(-42.444 -305.087)" opacity="0.4"/>
          <path id="Path_2170" data-name="Path 2170" d="M56.217,344.271l-4.167-2.748c-.375-.244-.68-.069-.68.394a1.712,1.712,0,0,0,.68,1.286l4.167,2.748c.375.244.68.069.68-.394a1.7,1.7,0,0,0-.68-1.286Z" transform="translate(-42.446 -305.484)"/>
          <path id="Path_2171" data-name="Path 2171" d="M56.217,344.271l-4.167-2.748c-.375-.244-.68-.069-.68.394a1.712,1.712,0,0,0,.68,1.286l4.167,2.748c.375.244.68.069.68-.394a1.7,1.7,0,0,0-.68-1.286Z" transform="translate(-42.446 -305.484)" opacity="0.3"/>
        </g>
      </g>
      <g id="freepik--Keyboard--inject-3" transform="translate(47.399 74.154)">
        <path id="freepik--shadow--inject-3-4" data-name="freepik--shadow--inject-3" d="M154.055,349.762l9.818,6.5a1.043,1.043,0,0,0,1.07,0l28.181-18.549a.392.392,0,0,0,0-.707l-9.818-6.5a1.053,1.053,0,0,0-1.07,0l-28.181,18.562a.394.394,0,0,0,0,.694Z" transform="translate(-153.848 -329.769)" opacity="0.15"/>
        <g id="freepik--keyboard--inject-3-2" data-name="freepik--keyboard--inject-3" transform="translate(1.06)">
          <path id="Path_2172" data-name="Path 2172" d="M193.738,335.262a.43.43,0,0,0-.218-.347l-8.782-5.787a1.02,1.02,0,0,0-1.047,0l-26.8,17.7a.43.43,0,0,0-.218.347v1.05a.43.43,0,0,0,.218.347l8.782,5.787a1.039,1.039,0,0,0,1.048,0l26.8-17.649a.429.429,0,0,0,.218-.343Z" transform="translate(-156.67 -328.982)" fill="#263238"/>
          <path id="Path_2173" data-name="Path 2173" d="M165.671,353.275l-8.782-5.762a.383.383,0,0,1,0-.69l26.8-17.7a1.02,1.02,0,0,1,1.047,0l8.782,5.787a.383.383,0,0,1,0,.69l-26.8,17.67A1.02,1.02,0,0,1,165.671,353.275Z" transform="translate(-156.672 -328.982)" fill="#37474f"/>
          <path id="Path_2174" data-name="Path 2174" d="M166.164,377.659v1.076a.954.954,0,0,1-.492-.137L156.9,372.81a.429.429,0,0,1-.218-.347V371.4a.43.43,0,0,0,.218.347l8.774,5.766A1.018,1.018,0,0,0,166.164,377.659Z" transform="translate(-156.676 -353.216)" fill="#263238"/>
          <path id="Path_2175" data-name="Path 2175" d="M186.841,331.444h0l.871.57-1.179.78-.9-.579,1.179-.776Zm1.363.9h0l.867.574-.924.609-.879-.557.927-.613Zm-3,.189h.019l.871.574-.927.609-.9-.57.924-.613Zm4.37.707h0l.871.574-1.5.986-.9-.574,1.5-.986Zm-2.756.021h0l.871.574-.751.484-.9-.574.751-.484Zm-3,.193h.019l.871.57-.927.613-.9-.579.924-.609Zm1.8.6h.023l.867.57-.736.484-.9-.574.751-.484Zm5.324.081h0l.867.57-1.156.784-.9-.579,1.179-.776Zm-8.519.231h0l.867.574-6.69,4.411-.9-.579,6.694-4.407Zm5.192.163h.019l.871.574-.751.484-.9-.574.751-.484Zm-3.2.317h0l.871.57-.751.484-.9-.574.751-.484Zm7.884.184h0l.871.574-.751.484-.9-.579.751-.484Zm-3,.189h.019l.867.574-.751.484-.9-.579.751-.484Zm-2.883.107h.019l.871.57-.751.484-.9-.574.751-.484Zm-3.2.313h0l.871.574-.751.484-.9-.579.751-.484Zm7.884.184h.023l.867.574-.751.484-.9-.579.751-.484Zm-3,.189h.019l.871.574-.751.484-.9-.579.751-.484Zm-2.883.107h.023l.867.57-.751.484-.9-.574.751-.484Zm8.748,0h.019l.871.57-.927.613-.9-.579.924-.609Zm-11.947.313h0l.867.574-.751.484-.867-.574.732-.484Zm7.884.184h0l.867.574-.751.484-.867-.574.751-.484Zm-3,.189h0l.871.574-.751.484-.867-.57.751-.484Zm-2.88.107h.019l.867.574-.751.484-.9-.579.751-.484Zm-3.2.313h0l.867.574-.751.484-.9-.579.751-.484Zm11.23.159h0l.871.57-.751.489-.9-.579.751-.484Zm-3.345.026h0l.871.574-.751.484-.9-.574.751-.484Zm-3,.189h.023l.867.574-.751.484-.912-.549.751-.484Zm-2.88.107h0l.871.574-.751.484-.9-.579.751-.484Zm-3.2.313h.019l.871.574-.751.484-.9-.574.751-.484Zm11.23.159h.023l.867.574-.751.484-.9-.579.732-.484Zm-3.345.026h.019l.871.574-.751.484-.9-.574.751-.484Zm-3,.193h0l.871.57-.751.484-.9-.574.751-.484Zm-2.883.1h0l.871.574-.751.484-.9-.592.732-.484Zm-3.2.317h.019l.871.57-.751.484-.9-.574.732-.484Zm11.233.154h0l.867.574-.751.484-.9-.579.751-.484ZM186.3,339h.023l.867.57-.751.484-.9-.574.751-.484Zm-11.019.086h-.023l.871.574-.927.609-.9-.574.924-.613Zm8.012.1h.019l.871.57-.751.489-.9-.579.751-.484Zm-2.88.1h.019l.867.574-.751.484-.9-.574.751-.484Zm-3.2.317h0l.867.57-.751.484-.9-.574.751-.484Zm11.23.154h.019l.871.574-.751.484-.935-.57.751-.484Zm-3.345.03h0l.871.57-.751.489-.9-.579.751-.484Zm-3,.189h.023l.867.574-.751.484-.9-.579.751-.484Zm-8.2.026h.019l.871.57-.927.613-.9-.579.924-.609Zm5.32.077h0l.849.6-.751.484-.9-.574.751-.484Zm-3.2.317h-.008l.871.574-.751.484-.9-.579.751-.484Zm7.884.184h-.008l.871.574-.751.484-.9-.579.751-.484Zm-3,.189h0l.871.574-.751.484-.9-.579.751-.484Zm-2.883.107h.019l.871.57-.751.484-.9-.574.751-.484Zm8.714,0h0l.867.574-.751.484-.9-.579.751-.484Zm-14.222.021h0l.867.574-.924.609-.9-.579.927-.609Zm2.309.27h.019l.871.574-.751.484-.9-.579.732-.484Zm7.884.184h.023l.867.574-.751.484-.9-.579.732-.484Zm-3,.189h.019l.871.574-.751.484-.9-.579.751-.484Zm-2.883.107h.023l.867.574-.751.484-.942-.553.751-.484Zm8.714.021h.019l.871.574-.751.484-.9-.579.751-.484Zm-14.413.146h0l.871.574-1.179.776-.9-.574,1.179-.776Zm2.5.146h.023l.867.574-2.369,1.569-.9-.579,2.32-1.53Zm7.884.184h.019l.867.574-.751.484-.9-.579.751-.48Zm-3,.189h.023l.867.574-.751.484-.9-.574.732-.484Zm-2.88.107h.019l.871.574-.751.484-.9-.579.751-.484Zm8.71.021h.019l.871.574-.751.484-.946-.549.732-.484Zm-4.025.476h.019l.871.574-.751.484-.9-.574.751-.484Zm-11.083.133h0l.871.57-.751.484-.9-.574.751-.484Zm8.076.06h.019l.867.57-.751.484-.9-.574.751-.484Zm-2.883.1h.019l.871.574-.672.429a.172.172,0,0,0,0,.287l1.126.75-.864.57-2.253-1.475,1.75-1.153Zm8.714.021h.019l.867.574-.751.484-.9-.574.751-.484Zm-4.029.48h0l.871.57-.751.484-.9-.574.751-.484Zm-11.083.129h.019l.871.57-.777.527-.9-.579.732-.484Zm8.076.06h.019l.871.57-.751.484-.9-.574.751-.484Zm5.305.472h.023l.867.574-.751.484-.9-.579.732-.484Zm-3.5.133h.019l.867.57-.751.489-.9-.579.751-.484Zm-11.087.129h.023l.867.574-.751.484-.9-.579.751-.484Zm2.568.1h.019l.867.574-.751.484-.9-.579.751-.484Zm10.817.429h.019l.867.574-.751.484-.939-.549.751-.484Zm-3.5.133h.019l.871.57-1.307.857-.9-.574,1.307-.857Zm-11.338.3h.019l.871.574-1.941,1.286-.9-.579,1.937-1.286Zm7.948.141h.023l.867.574-.751.484-.9-.574.751-.484Zm5.688.227H179l.871.574-.751.484-.9-.574.751-.484Zm-12.273.527h.019l.867.574-.751.484-.9-.574.751-.484Zm5.384.043h.019l.867.57-.751.484-.9-.574.751-.484Zm2.564.1h0l.871.57-.751.489-.9-.579.751-.484Zm3.12.12h0l.871.57-.751.484-.9-.574.751-.484Zm-14.838.429h.019l.871.574-.751.484-.9-.574.751-.484Zm2.564.107h.019l.871.57-.751.484-.9-.574.751-.484Zm5.384.039h.019l.818.609-.751.489-.9-.579.751-.484Zm-2.82.064h.019l.871.57-.751.484-.9-.574.732-.484Zm5.384.039h.019l.871.574-.751.484-.9-.579.751-.484Zm2.857.3h.019l.867.57-.751.489-.9-.579.751-.484Zm-14.575.253h.019l2.23,1.466-.751.489-2.253-1.475.751-.484Zm2.564.1h.023l.867.57-.751.489-.9-.579.751-.484Zm2.564.1h.023l.867.57-.751.489-.9-.579.751-.484Zm5.384.039h.023l.867.574-.751.484-.9-.579.732-.484Zm-2.816.064h.019l.867.574-.751.484-.935-.553.751-.484Zm5.673.231h0l.871.574-.751.484-.9-.579.751-.484Zm-9.442.459h.019l.871.574-.751.484-.9-.579.751-.484Zm2.564.1h.019l.871.574-.751.484-.9-.579.751-.484Zm2.523.142h0l.871.574-.751.484-.9-.579.751-.484Zm3.109.129h.019l.871.574-.751.484-.9-.579.732-.484Zm-9.442.459h.019l2.23,1.47-.751.484-2.253-1.475.751-.484Zm2.564.1h0l.871.574-.751.484-.856-.6.751-.48Zm2.564.1h.019l.871.574-.751.484-.9-.574.751-.484Zm3.2.493h0l.375.244-.751.484-.405-.249.751-.484Zm-4.408.266h.019l.867.574-.751.484-.9-.574.751-.484Zm3.2.527h.023l.375.244-.751.484-.4-.249.728-.484Zm-4.408.27h.019l.871.57-.751.484-.9-.574.751-.484Zm3.206.523h.019l.375.244-.751.484-.4-.249.751-.48Zm-1.205.793h0l.375.244-.751.484-.405-.249.751-.48Z" transform="translate(-159.362 -330.386)"/>
        </g>
      </g>
      <g id="freepik--Character--inject-3" transform="translate(17.406)">
        <path id="freepik--shadow--inject-3-5" data-name="freepik--shadow--inject-3" d="M95.753,323.3a4.439,4.439,0,0,0,2.576,2.439c3.792,1.951,12.882,4.287,17.984,5.324,2.97.6,6.007,1.715,9.041,1.865a11.651,11.651,0,0,0,7.783-2.178,1.857,1.857,0,0,0,.728-.9,1.544,1.544,0,0,0-.635-1.608,3.461,3.461,0,0,0-1.6-.484,59.077,59.077,0,0,1-17.575-5.32,23.963,23.963,0,0,0,7.423-1.715,9.708,9.708,0,0,0,5.316-5.834,3.291,3.291,0,0,1,.7-1.522,1.445,1.445,0,0,1,1.532-.163c1.648.673,2.3,2.876,2.79,4.8s1.3,4.111,3,4.553a1.251,1.251,0,0,1,.278-1.951,1.567,1.567,0,0,1,1.851.857c.4.69.5,1.475.83,2.173s1.04,1.286,1.682,1a1.74,1.74,0,0,0,.751-.917,8.842,8.842,0,0,0-.053-6.615,17.375,17.375,0,0,0-3.593-5.41,20.805,20.805,0,0,0-6.871-5.273c-5.444-2.336-11.568-.634-16.963,1.852a67.772,67.772,0,0,0-11.673,6.88,20.179,20.179,0,0,0-3.845,3.429,5.982,5.982,0,0,0-1.6,3.858A3.294,3.294,0,0,0,95.753,323.3Z" transform="translate(-87.478 -241.297)" opacity="0.1"/>
        <g id="freepik--character--inject-3-2" data-name="freepik--character--inject-3">
          <g id="freepik--Arm--inject-3" transform="translate(27.824 34.419)">
            <path id="Path_2176" data-name="Path 2176" d="M174.663,277.361c-.8-1.406-2.223-4.287-2.669-4.878-1.22-1.586-3.736-4.094-3.736-4.094-2.373-2.208-9.66-9.555-9.66-9.555s-1.126-16.29-2.388-18.9c-1.457-3.035-4.228-3.159-7.1-3.357,0,0-.751,3.537-1.044,6.43,0,0,2.579,18.271,2.887,19.968s1.063,2.444,2.6,3.571c2.347,1.715,10.835,6.923,10.835,6.923l.417.33a1.9,1.9,0,0,1,.616.935,6.19,6.19,0,0,1,.222,1.157c.135,1.35,0,1.715.1,3.189s.375,1.428.882,2.692c.454,1.17.589,1.9.965,1.946s.856-.909.856-1.873a14.688,14.688,0,0,0-.533-2.435c-.019-.407.169-.913.972-.373s1.554,2.182,2.151,3.318a35.2,35.2,0,0,0,1.521,3.455c.6.819.83-.09,1.108-.857s1.633-2.019,1.99-3.245S175.451,278.771,174.663,277.361Z" transform="translate(-148.07 -236.456)" fill="#ffa8a7"/>
            <path id="Path_2177" data-name="Path 2177" d="M150.207,236.312c1.975,0,3.578-.249,5.316.96s2.208,2.864,2.6,5.436c.357,2.341,1.081,10.4,1.081,10.4s-5.016,3.159-9.386,1.145Z" transform="translate(-149.163 -236.291)" fill="#37474f"/>
            <path id="Path_2178" data-name="Path 2178" d="M206.75,339.19Z" transform="translate(-184.719 -295.079)"/>
          </g>
          <path id="Path_2179" data-name="Path 2179" d="M161.885,210.56a10.562,10.562,0,0,1,2.38,1.26,2.6,2.6,0,0,1,.725,3.249l-.9-.206s.466-1.213-.079-1.86a6.466,6.466,0,0,0-2.136-1.209Z" transform="translate(-128.865 -187.171)" fill="#263238"/>
          <path id="Path_2180" data-name="Path 2180" d="M166.093,219.331c-.751-.407-1.089.116-1.607,1.539s-.161,1.813.469,2.1,1.126-.193,1.5-1.372C166.893,220.27,166.882,219.773,166.093,219.331Z" transform="translate(-130.344 -192.106)"/>
          <path id="Path_2181" data-name="Path 2181" d="M166.253,219.361c-.751-.407-1.089.116-1.607,1.539s-.161,1.813.469,2.1,1.126-.193,1.5-1.372C167.057,220.3,167.045,219.8,166.253,219.361Z" transform="translate(-130.444 -192.123)" opacity="0.1"/>
          <path id="freepik--Chest--inject-3" d="M109.348,237.4a64.348,64.348,0,0,0-11.894,4.223s-.267,16.251,2.039,24.006a53.157,53.157,0,0,1,1.641,16.59c11.263,2.079,24.926-3.9,24.588-10.378a30.12,30.12,0,0,0-1.9-3.9s-.282-5.208-.158-7.528c8.26-8.827-3.21-20.148-6.169-24.032C115.694,236.646,113.047,236.453,109.348,237.4Z" transform="translate(-88.628 -201.923)" fill="#455a64"/>
          <path id="Path_2182" data-name="Path 2182" d="M94,167.6a5.7,5.7,0,0,0-.094,3.541,7.838,7.838,0,0,1,.436,2.872,5.872,5.872,0,0,1-1.877,3.078,5.581,5.581,0,0,1-.71.574c-.214.133-.462.193-.68.33a3.305,3.305,0,0,0-1.108,1.286,10.585,10.585,0,0,0-.8,2.435,9.224,9.224,0,0,1-.845,2.414,4.193,4.193,0,0,1-3.882,2.1,4.815,4.815,0,0,1-2.339-.857,6.342,6.342,0,0,1-1-.857,2.9,2.9,0,0,1-.661-1,5.374,5.374,0,0,0,.706,3.245,4.587,4.587,0,0,1-4.321-1.5,6.181,6.181,0,0,1-1.479-4.873c.135-1.1.544-2.143.751-3.211.571-2.915-1.72-4.51-2.095-7.168a4.315,4.315,0,0,1,1.84-4.2c.785-.472,1.817-.707,2.144-1.646a7.4,7.4,0,0,0-.045-2.3,3.616,3.616,0,0,1,2.546-3.168c1.277-.463,2.662-.459,3.95-.9,1.374-.463,2.628-1.419,4.025-1.715a4.822,4.822,0,0,1,4.58,1.783c.529.643.818,1.393,1.288,2.058s1.186,1.007,1.532,1.788a4.061,4.061,0,0,1,.1,3.318C95.485,166.045,94.49,166.606,94,167.6Z" transform="translate(-73.962 -156.001)" fill="#37474f"/>
          <path id="Path_2183" data-name="Path 2183" d="M121.646,175.762c-.158-5.1-2.752-12.38-12.352-11.45-9.356.909-12.108,10.438-11.263,15.613,1.19,7.142,5.741,7.6,6.923,12.269Z" transform="translate(-88.904 -160.703)" fill="#455a64"/>
          <path id="Path_2184" data-name="Path 2184" d="M104.267,189.513a2.1,2.1,0,0,1,2.35-.892,2.317,2.317,0,0,1,1.156.857c.432.544.424,1.286.728,1.908a1.26,1.26,0,0,0,.916.759c1.288.133.807-2.255.879-3.1,2.433-.986,2.365-2.015,2.7-4.467,1.7-2.1,4.663-2.409,7.224-.4,1.562-3.429,3.255-3,3.987-1.942a15.161,15.161,0,0,1,1.093,3.991,30.23,30.23,0,0,1,.409,6.3c-.315,8.192-2.681,10.16-3.86,10.717s-2.628.154-4.794-.313v4.921c2.253,4.908,4.051,12.338,3.965,17.19-3.465-7.493-8.891-11.5-11.455-14.224a10.916,10.916,0,0,1-1.551-2.041V195.845s-.946,1.153-2.448-.21C103.554,193.8,102.938,191.228,104.267,189.513Z" transform="translate(-92.449 -170.553)" fill="#ffa8a7"/>
          <path id="Path_2185" data-name="Path 2185" d="M127.361,223.764a14.338,14.338,0,0,1-5.256-2.572,7.468,7.468,0,0,1-2.035-3.262s.161,3.159,1.554,4.583,5.752,3.065,5.752,3.065Z" transform="translate(-102.759 -191.382)" fill="#f28f8f"/>
          <path id="Path_2186" data-name="Path 2186" d="M136.967,203.535a1.108,1.108,0,0,1-.881,1.239,1.033,1.033,0,0,1-1.1-.989,1.118,1.118,0,0,1,.851-1.265.926.926,0,0,1,.748.241A1.206,1.206,0,0,1,136.967,203.535Z" transform="translate(-112.072 -182.573)" fill="#263238"/>
          <path id="Path_2187" data-name="Path 2187" d="M156.089,201.381a1.035,1.035,0,0,1-.751,1.2.785.785,0,0,1-.694-.2,1.037,1.037,0,0,1-.327-.726,1.014,1.014,0,0,1,.773-1.157.931.931,0,0,1,1.014.883Z" transform="translate(-124.142 -181.417)" fill="#263238"/>
          <path id="Path_2188" data-name="Path 2188" d="M145.82,199.26l.706,6.825,3.071-1.337Z" transform="translate(-118.841 -180.715)" fill="#f28f8f"/>
          <path id="Path_2189" data-name="Path 2189" d="M134.925,195.715l-2.253,1.175a1.569,1.569,0,0,1,.627-1.916,1.072,1.072,0,0,1,.952-.027A1.307,1.307,0,0,1,134.925,195.715Z" transform="translate(-110.563 -178.195)" fill="#263238"/>
          <path id="Path_2190" data-name="Path 2190" d="M136.727,217.18l3.233,1.252a1.745,1.745,0,0,1-2.23,1.243,1.77,1.77,0,0,1-.967-1,2.152,2.152,0,0,1-.036-1.491Z" transform="translate(-113.09 -190.953)" fill="#b16668"/>
          <path id="Path_2191" data-name="Path 2191" d="M136.855,219.19a1.794,1.794,0,0,1,1.584,1.715,1.478,1.478,0,0,1-.661-.094,1.829,1.829,0,0,1-1.089-1.6A1.027,1.027,0,0,1,136.855,219.19Z" transform="translate(-113.139 -192.102)" fill="#f28f8f"/>
          <path id="Path_2192" data-name="Path 2192" d="M156.035,194.871l-2.275-1.14a1.294,1.294,0,0,1,.656-.773,1.055,1.055,0,0,1,.943.015A1.579,1.579,0,0,1,156.035,194.871Z" transform="translate(-123.8 -177.055)" fill="#263238"/>
          <path id="Path_2193" data-name="Path 2193" d="M139.49,235.21c1.449.48,5.684,7.022,7.058,9.38l-1.554,4.527a20.8,20.8,0,0,1,2.452,3.614l-3.165,10.524s.285-14.022-4.791-24.692Z" transform="translate(-114.888 -201.254)" fill="#263238"/>
          <path id="Path_2194" data-name="Path 2194" d="M125.717,256.269c1.126,3.339,1.284,11.081,1.284,11.081s-1.126-7.223-6.446-9.753c0-.347.056-5.294.056-5.294s-7.133-2.066-8.635-2.842l-1.536-9.431s1.025-2.924,1.877-3v2.036a87.587,87.587,0,0,1,6.732,6.765C122.939,250.113,124.6,252.93,125.717,256.269Z" transform="translate(-96.744 -202.294)" fill="#37474f"/>
          <path id="Path_2195" data-name="Path 2195" d="M126.727,296.348c-1.149-1.1-2.812-2.628-4.13-3a6.678,6.678,0,0,0-.935-.236,9.082,9.082,0,0,0,1.31-.429,2.461,2.461,0,0,0,1.066-.96c.1-.176.158-.429,0-.566a.287.287,0,0,0-.191-.06c-.972.056-1.75-.043-2.628-.034a3.35,3.35,0,0,0-1.186.137c-.353.15-.706.3-1.051.476a7.737,7.737,0,0,1-5.316,1.11l-.969-.292L96.41,282.913l-3.09-19.205s-.751-11.909-4.975-14.8a9.986,9.986,0,0,0-5.388,6c-.788,3.1-.481,7.5.864,14.331,1.126,5.714,2.3,11.574,3.574,15.926s1.761,5.89,4.261,6.743c4.194,1.432,19.324,6.169,19.324,6.169a9.1,9.1,0,0,0,.946.356,14.025,14.025,0,0,0,2.253.887c1.476.369,3.27-.4,4.505-.6a11.683,11.683,0,0,1,4.6.694c1.2.429,2.44-1.74,3.037-1.548S127.88,297.454,126.727,296.348Z" transform="translate(-79.313 -209.081)" fill="#ffa8a7"/>
          <path id="Path_2196" data-name="Path 2196" d="M182.236,349.646a3.976,3.976,0,0,0-1.746.493,8.532,8.532,0,0,1,2.339.24,9.081,9.081,0,0,0,1.31-.429,2.559,2.559,0,0,0,.972-.81C184.436,349.749,183.084,349.663,182.236,349.646Z" transform="translate(-140.494 -266.344)" fill="#f28f8f"/>
          <path id="Path_2197" data-name="Path 2197" d="M87.465,248.61c-2.917,1.423-4.851,3.164-5.632,6.829s-.229,6.885.428,10.764,2.2,10.186,2.2,10.186,6.244.429,9.844-2.422L92.331,259.34s-1.04-8.685-4.667-10.6" transform="translate(-78.639 -208.91)" fill="#37474f"/>
          <path id="Path_2198" data-name="Path 2198" d="M104.463,164.918c-2.193,2.319-4.3,5.607-2.737,13.216a4.546,4.546,0,0,0-.9,4.287c.6,2.349,2.576,3.9,4.411,3.429s2.831-2.705,2.23-5.058c-.454-1.758-2.106-3.459-3.465-3.348a13.483,13.483,0,0,1-.083-7.866c1.667-6.285,8.083-6.808,10.907-6.3C113.876,161.75,107.362,161.853,104.463,164.918Z" transform="translate(-90.617 -159.607)"/>
          <path id="Path_2199" data-name="Path 2199" d="M104.463,164.918c-2.193,2.319-4.3,5.607-2.737,13.216a4.546,4.546,0,0,0-.9,4.287c.6,2.349,2.576,3.9,4.411,3.429s2.831-2.705,2.23-5.058c-.454-1.758-2.106-3.459-3.465-3.348a13.483,13.483,0,0,1-.083-7.866c1.667-6.285,8.083-6.808,10.907-6.3C113.876,161.75,107.362,161.853,104.463,164.918Z" transform="translate(-90.617 -159.607)" opacity="0.4"/>
          <path id="Path_2200" data-name="Path 2200" d="M105.95,200.017c-.668-2.606-2.857-4.317-4.881-3.828a2.876,2.876,0,0,0-.882.377c-.229.146-.92.686-1.055.789a4.879,4.879,0,0,0-1.363,5.076c.668,2.606,2.857,4.317,4.881,3.828a2.972,2.972,0,0,0,1.051-.489c.165-.12.811-.613.969-.742A4.872,4.872,0,0,0,105.95,200.017Z" transform="translate(-88.714 -178.913)"/>
          <path id="Path_2201" data-name="Path 2201" d="M105.95,200.017c-.668-2.606-2.857-4.317-4.881-3.828a2.876,2.876,0,0,0-.882.377c-.229.146-.92.686-1.055.789a4.879,4.879,0,0,0-1.363,5.076c.668,2.606,2.857,4.317,4.881,3.828a2.972,2.972,0,0,0,1.051-.489c.165-.12.811-.613.969-.742A4.872,4.872,0,0,0,105.95,200.017Z" transform="translate(-88.714 -178.913)" opacity="0.3"/>
          <path id="Path_2202" data-name="Path 2202" d="M105.108,201.5c-.668-2.6-2.857-4.317-4.881-3.824s-3.139,3-2.47,5.6,2.857,4.317,4.881,3.828S105.777,204.108,105.108,201.5Z" transform="translate(-88.702 -179.763)"/>
          <path id="Path_2203" data-name="Path 2203" d="M105.108,201.5c-.668-2.6-2.857-4.317-4.881-3.824s-3.139,3-2.47,5.6,2.857,4.317,4.881,3.828S105.777,204.108,105.108,201.5Z" transform="translate(-88.702 -179.763)" opacity="0.1"/>
          <path id="Path_2204" data-name="Path 2204" d="M106.542,205.352a2.127,2.127,0,0,0-2.309-1.8,2.042,2.042,0,0,0-1.168,2.645,2.137,2.137,0,0,0,2.309,1.8A2.06,2.06,0,0,0,106.542,205.352Z" transform="translate(-92.077 -183.142)" fill="#37474f"/>
        </g>
      </g>
      <g id="freepik--Monitor--inject-3" transform="translate(68.68 56.512)">
        <path id="freepik--shadow--inject-3-6" data-name="freepik--shadow--inject-3" d="M218.5,388.547l-7.592-5.076a.432.432,0,0,1,0-.857l29.769-19.625a1.234,1.234,0,0,1,1.261,0l7.584,5.037a.446.446,0,0,1,0,.832l-29.765,19.694a1.227,1.227,0,0,1-1.258,0Z" transform="translate(-210.53 -330.669)" opacity="0.1"/>
        <g id="freepik--monitor--inject-3-2" data-name="freepik--monitor--inject-3" transform="translate(1.874)">
          <path id="Path_2205" data-name="Path 2205" d="M249.319,317.112l1.994-27.007a2.43,2.43,0,0,0-.886-2.023,2.005,2.005,0,0,0-2.027.043l-29.735,19.6a3.031,3.031,0,0,0-1.149,2.066l-1.99,27.007a2.413,2.413,0,0,0,.882,2.023,2.005,2.005,0,0,0,2.031-.043L248.174,319.2A3.018,3.018,0,0,0,249.319,317.112Z" transform="translate(-215.522 -287.827)" fill="#263238"/>
          <path id="Path_2206" data-name="Path 2206" d="M255.311,290.124l-1.99,27.007,1.445-26.81c.053-.759-.188-1.046-.751-.669l-29.371,19.381a2.576,2.576,0,0,0-.751.879l-1.964-1.286a2.487,2.487,0,0,1,.751-.857l29.732-19.6a2.022,2.022,0,0,1,2.035-.043,2.43,2.43,0,0,1,.863,2Z" transform="translate(-219.524 -287.85)" fill="#37474f"/>
          <path id="Path_2207" data-name="Path 2207" d="M220.753,340.257l1.994-27.007a3.014,3.014,0,0,1,1.145-2.066l29.371-19.407c.578-.382.818-.09.751.669l-1.445,26.81a3.015,3.015,0,0,1-1.145,2.071l-29.735,19.6C221.124,341.324,220.7,341.02,220.753,340.257Z" transform="translate(-218.786 -289.988)" fill="#455a64"/>
          <path id="Path_2208" data-name="Path 2208" d="M259.289,361.748l-.229,8.136,8.26-5.423-2.012-6.662Z" transform="translate(-242.714 -327.804)" fill="#263238"/>
          <path id="Path_2209" data-name="Path 2209" d="M261.25,363.141l5.767-3.824-.984-.647L260.27,362.5Z" transform="translate(-243.47 -328.301)" fill="#455a64"/>
          <path id="Path_2210" data-name="Path 2210" d="M267.164,371.6,264.01,360.18l-5.767,3.828-.976-.652.646,8.8.161,2.529.094.54-.421-.274-1.877-1.226a.283.283,0,0,0-.282-.043h0a.348.348,0,0,0-.131.313v.193a1.067,1.067,0,0,0,.405.815h0l3.086,2.036h0a.815.815,0,0,0,.375.111.777.777,0,0,0,.447-.116l7.025-4.63A.863.863,0,0,0,267.164,371.6Zm-4.434-.977a1.087,1.087,0,0,1-1.14.147,1.353,1.353,0,0,1-.737-1,2.825,2.825,0,0,1,1.032-2.8,1.081,1.081,0,0,1,1.143-.153,1.346,1.346,0,0,1,.735,1.011A2.82,2.82,0,0,1,262.73,370.627Z" transform="translate(-240.463 -329.163)" fill="#37474f"/>
          <path id="Path_2211" data-name="Path 2211" d="M255.83,389.578l2.4-1.578.484,3.678Z" transform="translate(-240.697 -345.057)"/>
          <path id="Path_2212" data-name="Path 2212" d="M258.252,368.247l-.98-.647.811,11.317c.053.3-.1.429-.323.266l-1.877-1.226c-.229-.154-.413-.026-.413.274v.189a1.079,1.079,0,0,0,.4.819h0l3.094,2.036h0a.781.781,0,0,0,.375.111Z" transform="translate(-240.472 -333.403)" fill="#263238"/>
          <path id="Path_2213" data-name="Path 2213" d="M272.219,379.345a1.1,1.1,0,0,1-1.569-.193,1.237,1.237,0,0,0,.875-.231,2.81,2.81,0,0,0,1.032-2.8,1.728,1.728,0,0,0-.312-.682,1.313,1.313,0,0,1,1,1.1A2.821,2.821,0,0,1,272.219,379.345Z" transform="translate(-249.953 -337.882)" fill="#263238"/>
          <path id="Path_2214" data-name="Path 2214" d="M261.041,343.194l-.375,5.209c-.026.343.139.5.375.352a1.276,1.276,0,0,0,.458-.887l.375-5.2c.026-.347-.139-.5-.375-.356a1.3,1.3,0,0,0-.458.887Z" transform="translate(-243.715 -318.921)"/>
          <path id="Path_2215" data-name="Path 2215" d="M264.981,340.922l-.375,5.2c-.026.343.139.5.375.356a1.3,1.3,0,0,0,.458-.892l.375-5.2c.026-.343-.139-.5-.375-.352a1.29,1.29,0,0,0-.458.887Z" transform="translate(-246.176 -317.622)"/>
          <path id="Path_2216" data-name="Path 2216" d="M268.921,338.644l-.375,5.208c-.026.343.139.5.375.352a1.276,1.276,0,0,0,.458-.887l.375-5.2c.026-.347-.139-.5-.375-.356A1.3,1.3,0,0,0,268.921,338.644Z" transform="translate(-248.636 -316.322)"/>
          <path id="Path_2217" data-name="Path 2217" d="M272.862,336.372l-.375,5.2c-.023.343.139.5.375.356a1.3,1.3,0,0,0,.458-.892l.375-5.2c.026-.343-.139-.5-.375-.352A1.29,1.29,0,0,0,272.862,336.372Z" transform="translate(-251.098 -315.022)"/>
        </g>
      </g>
    </g>
    <g id="freepik--Plant--inject-3" transform="translate(76.39 78.927)">
      <g id="freepik--Pot--inject-3">
        <g id="freepik--pot--inject-3-2" data-name="freepik--pot--inject-3" transform="translate(7.37 23.37)">
          <path id="Path_2218" data-name="Path 2218" d="M215.3,195.926c-2.4-2.834-3.818-14.365-1.472-16.616h11.935c2.347,2.246.935,13.778-1.468,16.612l-.068.077-.083.094a2.93,2.93,0,0,1-.218.223l-.056.051c-.06.056-.116.107-.18.159a3.65,3.65,0,0,1-.312.231,6.992,6.992,0,0,1-7.164,0h0c-.109-.069-.21-.15-.315-.231a1.649,1.649,0,0,1-.169-.15.781.781,0,0,1-.071-.064c-.023-.026-.143-.141-.21-.214l-.094-.107Z" transform="translate(-212.631 -177.049)"/>
          <path id="Path_2219" data-name="Path 2219" d="M215.3,195.926c-2.4-2.834-3.818-14.365-1.472-16.616h11.935c2.347,2.246.935,13.778-1.468,16.612l-.068.077-.083.094a2.93,2.93,0,0,1-.218.223l-.056.051c-.06.056-.116.107-.18.159a3.65,3.65,0,0,1-.312.231,6.992,6.992,0,0,1-7.164,0h0c-.109-.069-.21-.15-.315-.231a1.649,1.649,0,0,1-.169-.15.781.781,0,0,1-.071-.064c-.023-.026-.143-.141-.21-.214l-.094-.107Z" transform="translate(-212.631 -177.049)" opacity="0.3"/>
          <path id="Path_2220" data-name="Path 2220" d="M225.052,175.392c2.722,1.818,2.722,4.758,0,6.576a9.611,9.611,0,0,1-9.863,0c-2.729-1.813-2.722-4.758,0-6.576A9.641,9.641,0,0,1,225.052,175.392Z" transform="translate(-212.952 -174.035)"/>
          <path id="Path_2221" data-name="Path 2221" d="M225.052,175.392c2.722,1.818,2.722,4.758,0,6.576a9.611,9.611,0,0,1-9.863,0c-2.729-1.813-2.722-4.758,0-6.576A9.641,9.641,0,0,1,225.052,175.392Z" transform="translate(-212.952 -174.035)" opacity="0.1"/>
          <path id="Path_2222" data-name="Path 2222" d="M226.835,177.907c2,1.333,2,3.494,0,4.827a7.057,7.057,0,0,1-7.242,0c-1.986-1.333-2-3.494,0-4.827A7.057,7.057,0,0,1,226.835,177.907Z" transform="translate(-216.045 -175.676)" fill="#455a64"/>
          <path id="Path_2223" data-name="Path 2223" d="M220.088,183.247a7.057,7.057,0,0,1,7.242,0,3.561,3.561,0,0,1,1.2,1.286,3.525,3.525,0,0,1-1.2,1.286,7.057,7.057,0,0,1-7.242,0,3.557,3.557,0,0,1-1.2-1.286A3.613,3.613,0,0,1,220.088,183.247Z" transform="translate(-216.54 -178.727)" fill="#f5f5f5"/>
        </g>
        <g id="freepik--Plants--inject-3">
          <path id="Path_2224" data-name="Path 2224" d="M234.072,125.037l-4.772,3.725,4.505-1.951a10.446,10.446,0,0,1-.894,3.961,22.481,22.481,0,0,0-4.6,3.391l3.968-1.423a25.072,25.072,0,0,1-.642,4.99,32.161,32.161,0,0,1-2.215,5.5,17.306,17.306,0,0,1-1.093,1.843c-.023.039-.049.073-.075.111-.751-.562-1.5-1.115-2.3-1.65a31.752,31.752,0,0,1-1.059-7.223,16.307,16.307,0,0,1,12.093-16.8A18.858,18.858,0,0,0,234.072,125.037Z" transform="translate(-212.915 -119.52)"/>
          <path id="Path_2225" data-name="Path 2225" d="M234.072,125.037l-4.772,3.725,4.505-1.951a10.446,10.446,0,0,1-.894,3.961,22.481,22.481,0,0,0-4.6,3.391l3.968-1.423a25.072,25.072,0,0,1-.642,4.99,32.161,32.161,0,0,1-2.215,5.5,17.306,17.306,0,0,1-1.093,1.843c-.023.039-.049.073-.075.111-.751-.562-1.5-1.115-2.3-1.65a31.752,31.752,0,0,1-1.059-7.223,16.307,16.307,0,0,1,12.093-16.8A18.858,18.858,0,0,0,234.072,125.037Z" transform="translate(-212.915 -119.52)" opacity="0.2"/>
          <path id="Path_2226" data-name="Path 2226" d="M233.178,132.65a7.417,7.417,0,0,0-1.239,1.715,15.794,15.794,0,0,0-.875,1.989,22.828,22.828,0,0,0-1.07,4.265,21.446,21.446,0,0,0,.42,8.775h0a.148.148,0,0,1-.088.159.122.122,0,0,1-.152-.073h0a21.686,21.686,0,0,1-.3-8.887A22.866,22.866,0,0,1,231,136.307a15.314,15.314,0,0,1,.9-1.981A7.479,7.479,0,0,1,233.178,132.65Z" transform="translate(-215.828 -127.021)" fill="#fafafa"/>
          <path id="Path_2227" data-name="Path 2227" d="M193,139.36h0a79.275,79.275,0,0,1,4.528,7.759l4.573,1.007-3.405.557,1.731,3.352,4.505,1.23-3.548.532s.875,3.97,3.356,5.7c1.37.956,2.05,1.119,2.482.677.3-.309.421-2.195.71-3.858a14.639,14.639,0,0,0-.92-7.768,10.577,10.577,0,0,0-1.382-2.478C202.4,141.692,196.139,139.42,193,139.36Z" transform="translate(-193 -130.855)"/>
          <path id="Path_2228" data-name="Path 2228" d="M193,139.36h0a79.275,79.275,0,0,1,4.528,7.759l4.573,1.007-3.405.557,1.731,3.352,4.505,1.23-3.548.532s.875,3.97,3.356,5.7c1.37.956,2.05,1.119,2.482.677.3-.309.421-2.195.71-3.858a14.639,14.639,0,0,0-.92-7.768,10.577,10.577,0,0,0-1.382-2.478C202.4,141.692,196.139,139.42,193,139.36Z" transform="translate(-193 -130.855)" fill="#fff" opacity="0.3"/>
          <path id="Path_2229" data-name="Path 2229" d="M206.063,150.25h0a17.666,17.666,0,0,1,.939,4.373h0a53.569,53.569,0,0,1-.023,5.693.751.751,0,0,0,.259-.167c.3-.309.42-2.195.71-3.858a14.639,14.639,0,0,0-.92-7.768,10.576,10.576,0,0,0-1.382-2.478c-3.233-4.373-9.5-6.645-12.626-6.7a20.308,20.308,0,0,1,12.27,9.221A11.637,11.637,0,0,1,206.063,150.25Z" transform="translate(-193.012 -130.843)" opacity="0.1"/>
          <path id="Path_2230" data-name="Path 2230" d="M205.717,143.76a19.121,19.121,0,0,1,6.255,5.269,14.561,14.561,0,0,1,2.091,3.785,15.111,15.111,0,0,1,.882,4.338h0a19.224,19.224,0,0,0-1.093-4.235,17.021,17.021,0,0,0-2.009-3.755,17.779,17.779,0,0,0-2.812-3.044,21.9,21.9,0,0,0-3.3-2.345h0S205.71,143.76,205.717,143.76Z" transform="translate(-200.942 -133.369)" fill="#fafafa"/>
          <path id="Path_2231" data-name="Path 2231" d="M244.771,148.024h0a8.509,8.509,0,0,0-1.156,0,16.437,16.437,0,0,0-4.475.935c-.541.193-1.081.429-1.614.664-.27.124-.533.257-.8.4a12.959,12.959,0,0,0-3.529,2.709,9.16,9.16,0,0,0-1.254,1.8l-.139.253h0c-.109.223-.207.429-.3.66a14.106,14.106,0,0,0-1.3,6.147,8.915,8.915,0,0,0,.582,3.554.658.658,0,0,0,.109.1c.375.3.969.176,2.118-.467,2.309-1.286,3.379-4.848,3.379-4.848l-3.079-.8,4.036-.656,1.761-2.786-2.977-.823,4.077-.429a68.152,68.152,0,0,1,4.535-6.4Z" transform="translate(-216.237 -135.793)"/>
          <path id="Path_2232" data-name="Path 2232" d="M243.6,147.985a16.449,16.449,0,0,0-4.46.956c-.541.193-1.081.429-1.614.664-.27.124-.533.257-.8.4a12.959,12.959,0,0,0-3.529,2.709,9.159,9.159,0,0,0-1.254,1.8l-.139.253h0c-.109.223-.207.429-.3.66a14.106,14.106,0,0,0-1.3,6.147,8.915,8.915,0,0,0,.582,3.554.656.656,0,0,0,.109.1.622.622,0,0,0,.24.12c-.161-2.349,1.126-8.2,2.767-10.537a17.81,17.81,0,0,1,10.862-6.8h0A8.343,8.343,0,0,0,243.6,147.985Z" transform="translate(-216.237 -135.776)" opacity="0.1"/>
          <path id="Path_2233" data-name="Path 2233" d="M232.609,167.148a22.716,22.716,0,0,1,.544-5.144,18.022,18.022,0,0,1,1.735-4.8,11.513,11.513,0,0,1,1.468-2.006,15.167,15.167,0,0,1,1.753-1.668,16.208,16.208,0,0,1,4.032-2.413h0a21.753,21.753,0,0,0-3.878,2.628,18.91,18.91,0,0,0-1.731,1.642,11.071,11.071,0,0,0-1.472,1.925,17.92,17.92,0,0,0-1.783,4.716,22.751,22.751,0,0,0-.638,5.1h0Z" transform="translate(-217.737 -137.574)" fill="#fafafa"/>
        </g>
      </g>
    </g>
    <g id="freepik--character-1--inject-3" transform="translate(94.631 60.044)">
      <g id="freepik--character-on-the-couch--inject-3">
        <g id="freepik--Couch--inject-3" transform="translate(0.524 14.057)">
          <path id="Path_2234" data-name="Path 2234" d="M326.27,272.3h3.811l-.612,4.244h0a.771.771,0,0,1-.375.527,1.818,1.818,0,0,1-1.843,0,.779.779,0,0,1-.375-.527h0Z" transform="translate(-294.999 -201.979)" fill="#fafafa"/>
          <path id="Path_2235" data-name="Path 2235" d="M382,242.44h3.811l-.608,4.244h0a.783.783,0,0,1-.375.523,1.818,1.818,0,0,1-1.844,0,.774.774,0,0,1-.375-.523h0Z" transform="translate(-329.805 -184.92)" fill="#fafafa"/>
          <path id="Path_2236" data-name="Path 2236" d="M251.08,230.19h3.811l-.608,4.244h0a.753.753,0,0,1-.375.523,1.8,1.8,0,0,1-1.843,0,.753.753,0,0,1-.375-.523h0Z" transform="translate(-248.039 -177.921)" fill="#fafafa"/>
          <path id="Path_2237" data-name="Path 2237" d="M302.71,200.16h3.811l-.608,4.244h0a.761.761,0,0,1-.375.523,1.818,1.818,0,0,1-1.843,0,.761.761,0,0,1-.375-.523h0Z" transform="translate(-280.285 -160.764)" fill="#fafafa"/>
          <path id="Path_2238" data-name="Path 2238" d="M243,138.226v20.268a4.857,4.857,0,0,0,1.84,3.67l1.5.995h.026a3.725,3.725,0,0,0,2.309.45L271.3,177.274a4.867,4.867,0,0,0,1.825,3.507h.019l1.5.986a.815.815,0,0,0,.139.086l.079.043h.023a3.707,3.707,0,0,0,2.865.15,2.767,2.767,0,0,0,.323-.133.268.268,0,0,1,.049-.026,1.629,1.629,0,0,0,.218-.129l21.776-14.309a4.847,4.847,0,0,0,1.847-3.652l.03-25.657V128.4a4.884,4.884,0,0,0-1.847-3.657L275.8,108.732a3.4,3.4,0,0,0-3.567.069l-1.5.99a5.7,5.7,0,0,0-2.129,3.635l-1.449,10.859-1.34-.883a3.584,3.584,0,0,0-4.021,0L244.84,134.573a4.854,4.854,0,0,0-1.84,3.652Z" transform="translate(-242.992 -108.261)" fill="#37474f"/>
          <path id="Path_2239" data-name="Path 2239" d="M315.577,109.791l1.5-.99a3.4,3.4,0,0,1,3.567-.069l24.34,16.016c.109.073.225.167.191.137a4.985,4.985,0,0,1,1.637,3.164c-.135-1.08-.9-1.47-1.825-.857l-1.5.995a3.633,3.633,0,0,1-3.694,0L315.58,112.239A1.36,1.36,0,0,1,315.577,109.791Z" transform="translate(-287.842 -108.261)" fill="#455a64"/>
          <path id="Path_2240" data-name="Path 2240" d="M243,157.581V177.85a4.857,4.857,0,0,0,1.84,3.67l1.5.995h.026a3.546,3.546,0,0,0,2.166.467,3.324,3.324,0,0,0,1.5-.484l17.113-11.266A4.852,4.852,0,0,0,269,167.574V147.3a4.843,4.843,0,0,0-1.847-3.657l-1.34-.883a3.584,3.584,0,0,0-4.021,0L244.84,153.929A4.854,4.854,0,0,0,243,157.581Z" transform="translate(-242.992 -127.617)" fill="#263238"/>
          <path id="Path_2241" data-name="Path 2241" d="M265.792,142.772l1.344.883a1.353,1.353,0,0,1,0,2.435l-17.105,11.279a4.846,4.846,0,0,0-1.851,3.657v20.264c0,1.342-.833,1.891-1.851,1.222l-1.5-.995a4.851,4.851,0,0,1-1.847-3.652V157.6a4.884,4.884,0,0,1,1.847-3.657l16.948-11.146a3.577,3.577,0,0,1,4.017-.021Z" transform="translate(-242.98 -127.631)" fill="#455a64"/>
          <path id="Path_2242" data-name="Path 2242" d="M248.18,178.819v20.264c0,1.342-.833,1.891-1.851,1.222l-1.5-.995a4.851,4.851,0,0,1-1.847-3.652V175.389a4.787,4.787,0,0,1,.544-2.079l5.2,3.429a4.773,4.773,0,0,0-.544,2.079Z" transform="translate(-242.98 -145.424)" fill="#37474f"/>
          <path id="Path_2243" data-name="Path 2243" d="M258.312,214.986a5.107,5.107,0,0,0,.676,1.157,7.937,7.937,0,0,0,1.738,1.389c6.5,4.287,11.188,7.365,17.687,11.652a1.825,1.825,0,0,0,1.847,0l6.007-3.965,12.014-7.922a4.247,4.247,0,0,0,0-7.009l-6.811-4.48-5.2-3.429-5.65-3.712a3.633,3.633,0,0,0-3.7,0l-17.1,11.266a4.659,4.659,0,0,0-1.851,3.5,4.17,4.17,0,0,0,.342,1.552Z" transform="translate(-252.342 -159.622)" fill="#263238"/>
          <path id="Path_2244" data-name="Path 2244" d="M278.407,242.541,258.884,229.68c-.507-.334-.924-.06-.924.613v2.143a2.432,2.432,0,0,0,.924,1.826l19.523,12.861c.511.334.924.06.924-.609v-2.143A2.406,2.406,0,0,0,278.407,242.541Z" transform="translate(-252.336 -177.548)" fill="#37474f"/>
          <path id="Path_2245" data-name="Path 2245" d="M280.621,174.246l17.672,11.634a4.829,4.829,0,0,1,1.847,3.657v4.287a4.838,4.838,0,0,1-1.847,3.652l-17.109,11.262a3.633,3.633,0,0,1-3.694,0L259.817,197.1a4.838,4.838,0,0,1-1.847-3.652V189.16a4.843,4.843,0,0,1,1.847-3.657l17.109-11.274a3.633,3.633,0,0,1,3.694.017Z" transform="translate(-252.342 -145.666)" fill="#37474f"/>
          <path id="Path_2246" data-name="Path 2246" d="M314.88,216.445v9.148a3.385,3.385,0,0,0,1.847-.51l17.109-11.274a4.838,4.838,0,0,0,1.847-3.652v-4.287a4.93,4.93,0,0,0-1.659-3.52,1.339,1.339,0,0,1-.188,2.3l-17.109,11.274A3.388,3.388,0,0,1,314.88,216.445Z" transform="translate(-287.885 -162.016)" fill="#263238"/>
          <path id="Path_2247" data-name="Path 2247" d="M279.333,199.606l-17.672-11.639a1.353,1.353,0,0,1,0-2.435l17.109-11.274a3.633,3.633,0,0,1,3.694,0l17.672,11.634a1.354,1.354,0,0,1,0,2.439l-17.109,11.274a3.633,3.633,0,0,1-3.694,0Z" transform="translate(-254.17 -145.677)" fill="#455a64"/>
        </g>
        <g id="freepik--character--inject-3-3" data-name="freepik--character--inject-3">
          <path id="Path_2248" data-name="Path 2248" d="M276.35,235.764s1.427,5.213,1.374,7.21c-.06,2.083.33,2.812-.146,5.037-.1.484-.4,1.445-.484,1.839a.661.661,0,0,0,.043.5.517.517,0,0,0,.367.279c.773.261,2.208-1.286,2.966-3.082a60.254,60.254,0,0,0,2.039-6.327,3.238,3.238,0,0,0-.143-1.475,4.614,4.614,0,0,0-.308-.789c-.2-.926-.191-2.654-.323-3.858Z" transform="translate(-263.298 -166.669)" fill="#b16668"/>
          <path id="Path_2249" data-name="Path 2249" d="M279.237,254.13a2.388,2.388,0,0,1,.161.7,7.186,7.186,0,0,1-1.288,2.165,3.617,3.617,0,0,0-.751,2.3,6.115,6.115,0,0,1-1.483,3.571,7.764,7.764,0,0,1-4.179,2.572c-1.96.489-2.553-.669-2.553-.669s-.518-1.11-.128-1.509S279.237,254.13,279.237,254.13Z" transform="translate(-258.627 -177.541)" fill="#263238"/>
          <path id="Path_2250" data-name="Path 2250" d="M277.266,244.1c.06,0,.161,0,.3.219.053.081.327,1.1.578,1.642a7.452,7.452,0,0,1,.976,2.439c-.563,1.573-1.975,2.572-2.286,4.081s-.469,3.279-2.662,4.951-4.321,1.663-5.046,1.093-.586-1.492.6-3.159a23.752,23.752,0,0,0,2.32-5.77,15.534,15.534,0,0,0,.327-1.715,13.274,13.274,0,0,0,0-1.715,1.435,1.435,0,0,1,.154-.767,1.145,1.145,0,0,1,.6-.394,4.506,4.506,0,0,1,1.089-.3,1.512,1.512,0,0,1,1.078.253,8.3,8.3,0,0,0,.642.562.881.881,0,0,0,1.025-.107,1.033,1.033,0,0,0,.353-1.033q-.016-.138-.045-.274Z" transform="translate(-258.507 -171.811)" fill="#455a64"/>
          <path id="Path_2251" data-name="Path 2251" d="M275.4,269.115a3.31,3.31,0,0,0-2.846-2.143,3.178,3.178,0,0,0-3.42,1.715c-.462.857-.991,2.422-.124,2.971.935.592,2.072.549,3.923-.3A5,5,0,0,0,275.4,269.115Z" transform="translate(-258.422 -184.865)" fill="#fafafa"/>
          <path id="Path_2252" data-name="Path 2252" d="M281.444,253.177a.208.208,0,0,1-.2-.021,3,3,0,0,0-3.2.176c-.128-.137-.083-.36.113-.66a3.564,3.564,0,0,1,3.334.069.243.243,0,0,1,.093.155.268.268,0,0,1-.033.184A.236.236,0,0,1,281.444,253.177Z" transform="translate(-264.315 -176.486)" fill="#fafafa"/>
          <path id="Path_2253" data-name="Path 2253" d="M277.263,256.785a.855.855,0,0,1,.18-.673,3.62,3.62,0,0,1,3.169.159.243.243,0,0,1,.093.155.268.268,0,0,1-.033.184.212.212,0,0,1-.308.077A3.067,3.067,0,0,0,277.263,256.785Z" transform="translate(-263.862 -178.508)" fill="#fafafa"/>
          <path id="Path_2254" data-name="Path 2254" d="M274.25,264.086a1.546,1.546,0,0,1,.345-.879,3.618,3.618,0,0,1,3.281.1.248.248,0,0,1,.093.157.273.273,0,0,1-.033.186.262.262,0,0,1-.113.1.208.208,0,0,1-.2-.021C277.287,263.486,275.354,262.834,274.25,264.086Z" transform="translate(-261.986 -182.525)" fill="#fafafa"/>
          <path id="Path_2255" data-name="Path 2255" d="M279.329,260.251a.194.194,0,0,1-.2,0,3.027,3.027,0,0,0-3.157.141.928.928,0,0,1,.237-.72,3.62,3.62,0,0,1,3.169.159.266.266,0,0,1,.085.231.246.246,0,0,1-.134.2Z" transform="translate(-263.06 -180.541)" fill="#fafafa"/>
          <path id="Path_2256" data-name="Path 2256" d="M257.851,250.65s-1.348,6.066-2.516,8.355a19.77,19.77,0,0,1-3.266,5.067c-.327.364-1.059,1.029-1.325,1.325a.675.675,0,0,0,0,.952c.559.725,3.127,1.127,4.663.03s3.049-3.605,3.983-4.518c.353-.343.683-.694,1.006-1.072s.259-.746.315-1.179c.026-.214.041-.793.041-.793.274-1.016.931-2.572,1.288-3.571Z" transform="translate(-247.183 -175.553)" fill="#b16668"/>
          <path id="Path_2257" data-name="Path 2257" d="M255.295,280.65a2.535,2.535,0,0,1-.124.746,6.873,6.873,0,0,1-2.065,1.389,3.3,3.3,0,0,0-1.6,1.788,5.474,5.474,0,0,1-2.8,2.619,7.363,7.363,0,0,1-4.963.309c-2.046-.54-2.151-1.938-2.151-1.938s-.056-1.312.469-1.492S255.295,280.65,255.295,280.65Z" transform="translate(-241.585 -192.693)" fill="#263238"/>
          <path id="Path_2258" data-name="Path 2258" d="M255.447,267.251c.056.034.158.081.2.356,0,.107-.12,1.209-.094,1.848a8.237,8.237,0,0,1-.034,2.808c-1.149,1.2-2.876,1.427-3.754,2.7s-1.723,2.868-4.457,3.331-4.738-.634-5.2-1.539.026-1.715,1.806-2.684c1.877-1.033,4.453-4.287,4.457-4.287a14.142,14.142,0,0,0,.976-1.453,13.03,13.03,0,0,0,.665-1.642,1.331,1.331,0,0,1,.443-.647,1.066,1.066,0,0,1,.721-.064,4.83,4.83,0,0,1,1.149.262,1.822,1.822,0,0,1,.92.793c.146.274.218.6.375.857a.969.969,0,0,0,1.014.429.932.932,0,0,0,.751-.8A2.646,2.646,0,0,0,255.447,267.251Z" transform="translate(-241.809 -184.287)" fill="#455a64"/>
          <path id="Path_2259" data-name="Path 2259" d="M249,287.6a4.018,4.018,0,0,0-1.858-3.464c-1.99-1.307-3.259-.609-3.9-.129-.77.57-1.877,1.783-1.28,2.748.653,1.037,1.75,1.573,3.83,1.715A4.55,4.55,0,0,0,249,287.6Z" transform="translate(-241.711 -194.257)" fill="#fafafa"/>
          <path id="Path_2260" data-name="Path 2260" d="M263.747,273.869a.236.236,0,0,1-.18-.12c-.214-.382-1.641-1.843-3.094-1.466-.064-.193.064-.382.375-.566a4.068,4.068,0,0,1,3.127,1.762.279.279,0,0,1,.027.2.246.246,0,0,1-.106.156.22.22,0,0,1-.15.039Z" transform="translate(-253.372 -187.588)" fill="#fafafa"/>
          <path id="Path_2261" data-name="Path 2261" d="M258.18,275.074a.778.778,0,0,1,.428-.544,4.161,4.161,0,0,1,2.94,1.766.279.279,0,0,1,.027.2.247.247,0,0,1-.106.156.223.223,0,0,1-.323-.081A3.451,3.451,0,0,0,258.18,275.074Z" transform="translate(-251.95 -189.196)" fill="#fafafa"/>
          <path id="Path_2262" data-name="Path 2262" d="M251.88,280.825a1.4,1.4,0,0,1,.672-.656,4.1,4.1,0,0,1,3.064,1.771.278.278,0,0,1,.029.194.248.248,0,0,1-.1.157.216.216,0,0,1-.143.034.226.226,0,0,1-.18-.12C254.989,281.811,253.427,280.2,251.88,280.825Z" transform="translate(-248.015 -192.418)" fill="#fafafa"/>
          <path id="Path_2263" data-name="Path 2263" d="M258.545,279.506a.222.222,0,0,1-.18-.12c-.214-.377-1.611-1.8-3.045-1.475a.865.865,0,0,1,.5-.562,4.175,4.175,0,0,1,2.94,1.766.283.283,0,0,1,.029.2.252.252,0,0,1-.1.16A.216.216,0,0,1,258.545,279.506Z" transform="translate(-250.163 -190.807)" fill="#fafafa"/>
          <path id="Path_2264" data-name="Path 2264" d="M283.348,171.64c-2.347,1.633-10.411,5.963-13.775,8.964-.972.857-1.363,2.092-1.344,4.848.026,3.742,1.648,16.637,1.648,16.637.3.75,1.017-.549,1.017-.549l13.49-16.487Z" transform="translate(-258.225 -130.414)"/>
          <path id="Path_2265" data-name="Path 2265" d="M283.348,171.64c-2.347,1.633-10.411,5.963-13.775,8.964-.972.857-1.363,2.092-1.344,4.848.026,3.742,1.648,16.637,1.648,16.637.3.75,1.017-.549,1.017-.549l13.49-16.487Z" transform="translate(-258.225 -130.414)" opacity="0.3"/>
          <path id="Path_2266" data-name="Path 2266" d="M274.8,202.315c3-2.418,13.34-17.949,13.34-17.949h0c-1.153-1.316-1.5-5.526-1.5-5.526a8.793,8.793,0,0,0,.049,4.934c-.77.639-5.1,4.055-8.106,6.327a4.558,4.558,0,0,0-1.877,2.718C275.874,196.24,274.789,201.6,274.8,202.315Z" transform="translate(-262.33 -134.527)" opacity="0.3"/>
          <path id="Path_2267" data-name="Path 2267" d="M283.037,171.64h0l15.393,5.474c-1.006,3.215-1.352,4.891-2.279,6.546s-1.956,3.429-6.2,5.324c-4.092,1.83-9.06,3.644-10.058,4.072-.751.322-1.216,1.942-1.7,4.051a27.745,27.745,0,0,1-2.962,8.492c-2.253,4.433-2.707,5.393-2.707,5.393a6.632,6.632,0,0,1-4.787-2.088s3.837-15.566,4.618-18.361a6.031,6.031,0,0,1,2.362-3.978c1.6-1.359,8.635-6.43,8.635-6.43S281.017,175.833,283.037,171.64Z" transform="translate(-257.914 -130.414)"/>
          <path id="Path_2268" data-name="Path 2268" d="M283.037,171.64h0l15.393,5.474c-1.006,3.215-1.352,4.891-2.279,6.546s-1.956,3.429-6.2,5.324c-4.092,1.83-9.06,3.644-10.058,4.072-.751.322-1.216,1.942-1.7,4.051a27.745,27.745,0,0,1-2.962,8.492c-2.253,4.433-2.707,5.393-2.707,5.393a6.632,6.632,0,0,1-4.787-2.088s3.837-15.566,4.618-18.361a6.031,6.031,0,0,1,2.362-3.978c1.6-1.359,8.635-6.43,8.635-6.43S281.017,175.833,283.037,171.64Z" transform="translate(-257.914 -130.414)" opacity="0.3"/>
          <path id="Path_2269" data-name="Path 2269" d="M292.7,107.3c-.3-.2-.428-2.461-.113-4.073s-.338-2.006-.661-1.5a2.817,2.817,0,0,0-.4.939,3.808,3.808,0,0,0-1.84,1.119,4.93,4.93,0,0,0-1.449,4.377,7.081,7.081,0,0,1-.143,2.375c-1.126,3.507-5.129,7.9-6.03,12.573-.833,4.287,2.106,4.716,4.674,3.429,2.951-1.513,8.605-7.245,8.605-7.245L297.8,109.9c-1.558,0-2.718.287-4.787,2.572-.345.382-1.783,1.783-1.783,1.783a20.449,20.449,0,0,1,1.472-3.292" transform="translate(-266.78 -90.352)" fill="#b16668"/>
          <path id="Path_2270" data-name="Path 2270" d="M298.652,145.61a21.441,21.441,0,0,1-1.5,3.108,5.98,5.98,0,0,0,1.926-2.572Z" transform="translate(-276.288 -115.542)" fill="#9a4a4d"/>
          <path id="Path_2271" data-name="Path 2271" d="M310.146,121a4.645,4.645,0,0,0-4.381,1.582c-1.22,1.35-2.527,2.774-2.527,2.774-.875,2.323-1.5,4.578-2.087,6.169a8.852,8.852,0,0,0,1.569,3.374l6.848-6.28Z" transform="translate(-278.787 -101.454)" fill="#fafafa"/>
          <path id="Path_2272" data-name="Path 2272" d="M302.251,117.294a1.6,1.6,0,0,0-.222-1.689l1.126-.857v-.056h0l-4.505-.231a7.046,7.046,0,0,0,.041,1.1,9.2,9.2,0,0,1,.034,1.115l.586.4a.392.392,0,0,0,.421,0l1.9-1.119C302.277,116.269,302.251,117.294,302.251,117.294Z" transform="translate(-277.222 -97.746)" fill="#9a4a4d"/>
          <path id="Path_2273" data-name="Path 2273" d="M297.671,98.607l7.884-4.248a.393.393,0,0,1,.443,0c.1.073.5.36.616.429a.5.5,0,0,1,.2.429l.255,4.66a1.174,1.174,0,0,1-.541,1.02l-7.884,4.248a.414.414,0,0,1-.417,0c-.113-.073-.552-.382-.668-.467a.533.533,0,0,1-.173-.394c-.064-1.17-.191-3.489-.255-4.66a1.169,1.169,0,0,1,.541-1.016Z" transform="translate(-276.276 -86.223)" fill="#37474f"/>
          <path id="Path_2274" data-name="Path 2274" d="M308.785,101.108a.648.648,0,0,1-.27.51l-7.46,4.025v.206l-.3-4.96a.63.63,0,0,1,.267-.5l7.629-4.128h0l-.165.09Z" transform="translate(-278.537 -87.348)"/>
          <path id="Path_2275" data-name="Path 2275" d="M308.785,101.108a.648.648,0,0,1-.27.51l-7.46,4.025v.206l-.3-4.96a.63.63,0,0,1,.267-.5l7.629-4.128h0l-.165.09Z" transform="translate(-278.537 -87.348)" fill="#fff" opacity="0.75"/>
          <path id="Path_2276" data-name="Path 2276" d="M309.493,101.23a.652.652,0,0,1-.27.506l-7.633,4.12v-.206l7.46-4.025a.648.648,0,0,0,.27-.51l-.293-4.754.165-.09Z" transform="translate(-279.061 -87.354)" fill="#263238"/>
          <path id="Path_2277" data-name="Path 2277" d="M298.249,111.24h-.023c-.113-.073-.552-.382-.668-.467a.533.533,0,0,1-.173-.394c-.064-1.17-.191-3.489-.255-4.66a1.214,1.214,0,0,1,.274-.789l.642.429a1.208,1.208,0,0,0-.278.793l.255,4.664a.488.488,0,0,0,.225.424Z" transform="translate(-276.276 -92.301)" fill="#263238"/>
          <path id="Path_2278" data-name="Path 2278" d="M307.092,94.787a.417.417,0,0,0-.405,0L298.8,99.039a.858.858,0,0,0-.267.223l-.646-.429a.949.949,0,0,1,.27-.231l7.884-4.248a.405.405,0,0,1,.439,0A6.446,6.446,0,0,0,307.092,94.787Z" transform="translate(-276.751 -86.222)" fill="#455a64"/>
          <path id="Path_2279" data-name="Path 2279" d="M300.023,112.269a.345.345,0,0,0-.154.3.134.134,0,0,0,.056.122.1.1,0,0,0,.12-.006.354.354,0,0,0,.154-.3.134.134,0,0,0-.056-.122.1.1,0,0,0-.12.006Z" transform="translate(-277.987 -96.481)" opacity="0.35"/>
          <path id="Path_2280" data-name="Path 2280" d="M310.8,112.305c.237-.223.323-.922.725-1.552.466-.724,1.539-.536,1.205.051a7.256,7.256,0,0,0-.695,2.615c-.244,1.5-.77,1.715-1.355,2.572v-3.605Z" transform="translate(-284.739 -95.359)" fill="#b16668"/>
          <path id="Path_2281" data-name="Path 2281" d="M319.044,121.774c1.3.39,5.482,2.276,5.482,2.276.9.806.522,2.572.507,4.6-.349,14.7-2.579,21.254-2.579,21.254-5.039,1.26-14.241-2.4-15.953-6.786,1.539-2.671,2.576-6.662,2.793-14.5.161-5.817,2.478-7.575,3.98-7.562A21.783,21.783,0,0,1,319.044,121.774Z" transform="translate(-282.128 -101.515)" fill="#ebebeb"/>
          <path id="Path_2282" data-name="Path 2282" d="M321.054,83.632a2.38,2.38,0,0,0,0-1.029c-.09-.364-.21-.716-.289-1.08-.1-.493-.218-.986-.345-1.47A7.92,7.92,0,0,1,320,77.961a1.393,1.393,0,0,1,.312-.93,1.017,1.017,0,0,1,1.1-.21,3.278,3.278,0,0,1,.995.682,2.619,2.619,0,0,1,.375-1.479,1.13,1.13,0,0,1,1.213-.523c.421.133.71.566,1.048.883a5.146,5.146,0,0,0,2.2,1.012,5.13,5.13,0,0,1,2.234,1.085,4.212,4.212,0,0,1,1.322,3c0,.429-.158,1.488-.218,2.053-.094.857-.173,1.715-.293,2.542-.616,4.287-1.843,7.4-5.632,7.082-1.442-.124-3.454-1.145-3.83-2.936a7.126,7.126,0,0,1-.071-.939c-.038-.63-.053-1.286-.041-1.895a25.775,25.775,0,0,1,.345-3.755Z" transform="translate(-290.559 -75.47)" fill="#263238"/>
          <path id="Path_2283" data-name="Path 2283" d="M343.581,89.52s.728.03,1.126,1.115a6.946,6.946,0,0,1-.323,4.716,20.352,20.352,0,0,1-1.994,4.081c-.334.647-.867,1.865-.867,1.865l.237-2.846.214-1.976s-1.066-.279-1.374-2.255c-.349-2.221.019-2.5.019-2.5Z" transform="translate(-303.331 -83.497)" fill="#455a64"/>
          <path id="Path_2284" data-name="Path 2284" d="M327.825,95.669a.386.386,0,0,0,.409-.034c.345-.231.507-.729.8-1.029a1.18,1.18,0,0,1,2.046.557,3.5,3.5,0,0,1-1.618,3.661c-1.3.566-1.776-.93-1.776-.93l-.5,6c-1.5,2.624-3.112,2.834-4.652,2.709s-1.423-1.758-.436-2.881l.131-1.955a8.815,8.815,0,0,1-2.11-.051c-1.126-.3-1.671-1.333-1.926-2.782a21.991,21.991,0,0,1-.18-5.088,23.814,23.814,0,0,1,.864-4.613,3.726,3.726,0,0,1,2.549-.712c1.34,0,3.03-.129,3.732.832a2.123,2.123,0,0,0,1.389,1.826C326.14,94.25,327.6,95.557,327.825,95.669Z" transform="translate(-289.273 -82.924)" fill="#b16668"/>
          <path id="Path_2285" data-name="Path 2285" d="M323.605,83.849a1.924,1.924,0,0,0-1.836-.763,12.133,12.133,0,0,0-2.313.814,4.836,4.836,0,0,1-1.735.33,2.829,2.829,0,0,1-1.614-.472,2.257,2.257,0,0,1-.728-1.646,2.288,2.288,0,0,1,.65-1.672.91.91,0,0,0,.375.72,2.149,2.149,0,0,0,.71.309,1.731,1.731,0,0,1-.469-1.5,2.043,2.043,0,0,1,1.078-1.41c.451-.146.972-.3,1.971.643S324.086,80.706,323.605,83.849Z" transform="translate(-287.673 -77.17)" fill="#263238"/>
          <path id="Path_2286" data-name="Path 2286" d="M329.273,116.533a16.708,16.708,0,0,0,3.522-.857,3.116,3.116,0,0,0,1.329-1.286,4.8,4.8,0,0,1-.811,1.586c-.713.9-4.092,1.32-4.092,1.32Z" transform="translate(-296.318 -97.706)" fill="#9a4a4d"/>
          <path id="Path_2287" data-name="Path 2287" d="M332.21,100.955a.562.562,0,0,0,.49.606.545.545,0,0,0,.538-.551.566.566,0,0,0-.476-.621A.557.557,0,0,0,332.21,100.955Z" transform="translate(-298.185 -89.706)" fill="#263238"/>
          <path id="Path_2288" data-name="Path 2288" d="M333.1,96.129l1.089.677a.807.807,0,0,0-.267-.995.543.543,0,0,0-.469-.037A.646.646,0,0,0,333.1,96.129Z" transform="translate(-298.741 -87.05)" fill="#263238"/>
          <path id="Path_2289" data-name="Path 2289" d="M328.8,110.26l-2.2.746a1.284,1.284,0,0,0,.528.809,1,1,0,0,0,.877.126A1.412,1.412,0,0,0,328.8,110.26Z" transform="translate(-294.682 -95.346)" fill="#9a4a4d"/>
          <path id="Path_2290" data-name="Path 2290" d="M329.347,112.751a.992.992,0,0,1-.6,0,1.089,1.089,0,0,1,1.108-1.055.831.831,0,0,1,.289.073A1.294,1.294,0,0,1,329.347,112.751Z" transform="translate(-296.024 -96.165)" fill="#f28f8f"/>
          <path id="Path_2291" data-name="Path 2291" d="M319.961,95.726l1.216-.429a.689.689,0,0,0-.282-.433.539.539,0,0,0-.469-.069.776.776,0,0,0-.466.93Z" transform="translate(-290.521 -86.497)" fill="#263238"/>
          <path id="Path_2292" data-name="Path 2292" d="M321,100.091a.65.65,0,0,0,.116.44.5.5,0,0,0,.357.212.52.52,0,0,0,.528-.316.679.679,0,0,0-.059-.677.494.494,0,0,0-.572-.192A.6.6,0,0,0,321,100.091Z" transform="translate(-291.179 -89.215)" fill="#263238"/>
          <path id="Path_2293" data-name="Path 2293" d="M324.64,99.25l-.372,3.961-1.738-.845Z" transform="translate(-292.14 -89.056)" fill="#9a4a4d"/>
        </g>
        <path id="Path_2294" data-name="Path 2294" d="M332.21,205.406V185.138a4.883,4.883,0,0,1,1.847-3.657l17.132-11.287a1.5,1.5,0,0,0,0-2.409l-.421-.274,1.453-10.859a5.7,5.7,0,0,1,2.129-3.635l1.5-.99c1.017-.673,1.847-.124,1.847,1.217V163l-.038,25.661a4.838,4.838,0,0,1-1.847,3.652l-21.776,14.314C333.043,207.292,332.21,206.744,332.21,205.406Z" transform="translate(-298.185 -119.044)" fill="#263238"/>
        <path id="Path_2295" data-name="Path 2295" d="M318.37,201.083v20.405a4.867,4.867,0,0,0,1.825,3.507h.019l1.5.986a.813.813,0,0,0,.139.086l.079.043h.023a.832.832,0,0,0,.146.064,3.786,3.786,0,0,0,2.718.086,2.768,2.768,0,0,0,.323-.133c-.89.429-1.577-.154-1.581-1.368h0V204.512a4.852,4.852,0,0,1,1.847-3.657l3.356-2.212,13.775-9.075a1.5,1.5,0,0,0,0-2.409l-1.528-1.007a3.652,3.652,0,0,0-3.694,0l-13.753,9.08-3.349,2.208a4.836,4.836,0,0,0-1.847,3.644Z" transform="translate(-289.541 -138.418)" fill="#455a64"/>
        <path id="Path_2296" data-name="Path 2296" d="M323.572,222.309v20.264h0c0,1.213.691,1.783,1.581,1.368a2.766,2.766,0,0,1-.323.133,3.786,3.786,0,0,1-2.718-.086.834.834,0,0,1-.146-.064h-.023l-.079-.043a.814.814,0,0,1-.139-.086l-1.5-.986H320.2a4.867,4.867,0,0,1-1.825-3.507V218.879a4.779,4.779,0,0,1,.541-2.079l5.2,3.429a4.737,4.737,0,0,0-.548,2.079Z" transform="translate(-289.548 -156.214)" fill="#37474f"/>
        <g id="freepik--arm--inject-3-2" data-name="freepik--arm--inject-3" transform="translate(27.561 22.519)">
          <path id="Path_2297" data-name="Path 2297" d="M336.723,149.285c-.5-4.467-.916-6.79-1.43-9.787-1.2-6.953-.916-8.951-5.32-10.258,0,0-1.6,1.6-1.663,5.719a11.862,11.862,0,0,0,.751,4.818l1.877,10.288a65.751,65.751,0,0,1-6.811,6.066,25.616,25.616,0,0,1-4.355,1.715c-.972.382-1.877.857-2.831,1.312a.365.365,0,0,0-.143.09.37.37,0,0,0-.06.356.63.63,0,0,0,.218.287,1.631,1.631,0,0,0,1.577.244,4.436,4.436,0,0,1,1.359-.369c.1,0,.21.034.169.18a1.066,1.066,0,0,1-.161.274,3.5,3.5,0,0,1-1.479.814,5.342,5.342,0,0,1-1.577.257,5.606,5.606,0,0,0-1.284.1.918.918,0,0,0-.375.184c-.582.519.342.917.529,1.286.1.189.27.523.375.7a1.239,1.239,0,0,0,.451.326,6.252,6.252,0,0,1,.6.5,2.663,2.663,0,0,0,1.663.493,8.213,8.213,0,0,0,1.479-.176,5.872,5.872,0,0,0,2.857-1.269,9.146,9.146,0,0,0,.976-1.033c.263-.313.522-.634.8-.935a17.073,17.073,0,0,1,1.449-1.256,80.548,80.548,0,0,0,9.138-6.1C337.358,152.625,336.945,151.24,336.723,149.285Z" transform="translate(-314.994 -128.708)" fill="#b16668"/>
          <path id="Path_2298" data-name="Path 2298" d="M351.273,128c3.12,1.157,3.968,2.662,4.265,3.8.432,1.642.751,3.515,1.269,6.289.751,4.15.886,5.792.886,5.792s-1.72,1.59-6.187,1.526l-1.5-6.747S347.83,132.758,351.273,128Z" transform="translate(-336.437 -128)" fill="#fafafa"/>
        </g>
      </g>
    </g>
    <g id="freepik--side-table--inject-3" transform="translate(139.187 98.119)">
      <g id="freepik--side-table--inject-3-2" data-name="freepik--side-table--inject-3">
        <g id="freepik--side-table--inject-3-3" data-name="freepik--side-table--inject-3" transform="translate(0 15.772)">
          <path id="Path_2299" data-name="Path 2299" d="M366.64,281.566l2.392-1.578-2.392-.789Z" transform="translate(-364.245 -245.711)"/>
          <path id="Path_2300" data-name="Path 2300" d="M366.64,281.566l2.392-1.578-2.392-.789Z" transform="translate(-364.245 -245.711)" fill="#fff" opacity="0.6"/>
          <path id="Path_2301" data-name="Path 2301" d="M366.64,281.566l2.392-1.578-2.392-.789Z" transform="translate(-364.245 -245.711)" opacity="0.05"/>
          <path id="Path_2302" data-name="Path 2302" d="M364.648,280.515l-1.2-.789V277.36l1.2.789Z" transform="translate(-362.252 -244.66)"/>
          <path id="Path_2303" data-name="Path 2303" d="M364.648,280.515l-1.2-.789V277.36l1.2.789Z" transform="translate(-362.252 -244.66)" fill="#fff" opacity="0.75"/>
          <path id="Path_2304" data-name="Path 2304" d="M398.56,282.427v2.516l17.308-11.407V271.02Z" transform="translate(-384.18 -241.038)"/>
          <path id="Path_2305" data-name="Path 2305" d="M398.56,282.427v2.516l17.308-11.407V271.02Z" transform="translate(-384.18 -241.038)" fill="#fff" opacity="0.6"/>
          <path id="Path_2306" data-name="Path 2306" d="M398.56,282.427v2.516l17.308-11.407V271.02Z" transform="translate(-384.18 -241.038)" opacity="0.1"/>
          <path id="Path_2307" data-name="Path 2307" d="M396.568,299.1l-1.2-.789V295.79l1.2.789Z" transform="translate(-382.188 -255.189)"/>
          <path id="Path_2308" data-name="Path 2308" d="M396.568,299.1l-1.2-.789V295.79l1.2.789Z" transform="translate(-382.188 -255.189)" fill="#fff" opacity="0.75"/>
          <path id="Path_2309" data-name="Path 2309" d="M419.052,225.03,401.74,236.437v20.5l17.312-11.407Z" transform="translate(-386.167 -214.763)"/>
          <path id="Path_2310" data-name="Path 2310" d="M419.052,225.03,401.74,236.437v20.5l17.312-11.407Z" transform="translate(-386.167 -214.763)" fill="#fff" opacity="0.6"/>
          <path id="Path_2311" data-name="Path 2311" d="M375.833,237.957,360.26,227.69v20.5l15.573,10.267Z" transform="translate(-360.26 -216.283)"/>
          <path id="Path_2312" data-name="Path 2312" d="M375.833,237.957,360.26,227.69v20.5l15.573,10.267Z" transform="translate(-360.26 -216.283)" fill="#fff" opacity="0.75"/>
          <path id="Path_2313" data-name="Path 2313" d="M360.26,212.487l17.312-11.407,15.573,10.267-17.312,11.407Z" transform="translate(-360.26 -201.08)"/>
          <path id="Path_2314" data-name="Path 2314" d="M360.26,212.487l17.312-11.407,15.573,10.267-17.312,11.407Z" transform="translate(-360.26 -201.08)" fill="#fff" opacity="0.85"/>
          <path id="Path_2315" data-name="Path 2315" d="M376.632,256.619,363.45,247.93v11.039l13.182,8.689Z" transform="translate(-362.252 -227.846)"/>
          <path id="Path_2316" data-name="Path 2316" d="M376.632,256.619,363.45,247.93v11.039l13.182,8.689Z" transform="translate(-362.252 -227.846)" fill="#fff" opacity="0.7"/>
          <path id="Path_2317" data-name="Path 2317" d="M363.45,266.276l8.316-5.556,4.866,3.207v11.039Z" transform="translate(-362.252 -235.153)" opacity="0.1"/>
          <path id="Path_2318" data-name="Path 2318" d="M363.45,258.969l8.316-5.556-8.316-5.483Z" transform="translate(-362.252 -227.846)" opacity="0.05"/>
          <path id="Path_2319" data-name="Path 2319" d="M376.632,241.9,363.45,233.21v4.733l13.182,8.689Z" transform="translate(-362.252 -219.436)"/>
          <path id="Path_2320" data-name="Path 2320" d="M376.632,241.9,363.45,233.21v4.733l13.182,8.689Z" transform="translate(-362.252 -219.436)" fill="#fff" opacity="0.85"/>
          <path id="Path_2321" data-name="Path 2321" d="M379.713,244.767c0,.219-.571,0-1.273-.429l-2.234-1.509c-.706-.463-1.277-1.016-1.277-1.235V241.2l4.783,3.155Z" transform="translate(-369.422 -224.001)" fill="#455a64"/>
        </g>
        <g id="freepik--shadow--inject-3-7" data-name="freepik--shadow--inject-3" transform="translate(19.812 22.644)" opacity="0.1">
          <path id="freepik--shadow--inject-3-8" data-name="freepik--shadow--inject-3" d="M417.46,223.189a5.394,5.394,0,0,0,3.251-1.012,2.337,2.337,0,0,0,0-4.055,5.737,5.737,0,0,0-6.506,0,2.337,2.337,0,0,0,0,4.055A5.4,5.4,0,0,0,417.46,223.189Z" transform="translate(-413.03 -217.11)"/>
        </g>
        <g id="freepik--Lamp--inject-3" transform="translate(18.196)">
          <path id="Path_2322" data-name="Path 2322" d="M417.08,220.094a1.536,1.536,0,0,1,.023-.261,4.016,4.016,0,0,1,1.4-2.392h2.94a4.016,4.016,0,0,1,1.4,2.392,1.551,1.551,0,0,1,.023.266v.043a1.681,1.681,0,0,1-.845,1.286,4.027,4.027,0,0,1-4.1,0,1.681,1.681,0,0,1-.845-1.286c0-.016-.006-.031-.007-.047Z" transform="translate(-413.943 -194.655)" fill="#37474f"/>
          <path id="Path_2323" data-name="Path 2323" d="M422.929,216.8a1.021,1.021,0,0,1,0,1.839,2.747,2.747,0,0,1-2.786,0,1.032,1.032,0,0,1,0-1.839A2.747,2.747,0,0,1,422.929,216.8Z" transform="translate(-415.505 -194.075)" fill="#455a64"/>
          <path id="Path_2324" data-name="Path 2324" d="M423.73,191.21h.8v11.759h0a.21.21,0,0,1-.113.206.558.558,0,0,1-.567,0,.209.209,0,0,1-.113-.206h0Z" transform="translate(-418.097 -179.67)" fill="#263238"/>
          <path id="Path_2325" data-name="Path 2325" d="M408.851,176.308h0l2.782-8.1h6.255l2.782,8.1h0a3.189,3.189,0,0,1-1.641,3.622,8.4,8.4,0,0,1-8.534,0C409,178.944,408.453,177.577,408.851,176.308Z" transform="translate(-408.726 -166.529)"/>
          <path id="Path_2326" data-name="Path 2326" d="M421.734,167.908a4.452,4.452,0,0,1-4.524,0,1.669,1.669,0,0,1,0-3,4.452,4.452,0,0,1,4.524,0A1.669,1.669,0,0,1,421.734,167.908Z" transform="translate(-413.439 -164.289)"/>
          <path id="Path_2327" data-name="Path 2327" d="M421.734,167.908a4.452,4.452,0,0,1-4.524,0,1.669,1.669,0,0,1,0-3,4.452,4.452,0,0,1,4.524,0A1.669,1.669,0,0,1,421.734,167.908Z" transform="translate(-413.439 -164.289)" fill="#fff" opacity="0.3"/>
          <path id="Path_2328" data-name="Path 2328" d="M420.087,168.694a3.828,3.828,0,0,0,2.08-.562,1.427,1.427,0,0,0,.751-1.127,1.412,1.412,0,0,0-.751-1.123,4.126,4.126,0,0,0-4.156,0A1.412,1.412,0,0,0,417.26,167a1.427,1.427,0,0,0,.751,1.127,3.822,3.822,0,0,0,2.076.562Z" transform="translate(-414.056 -164.878)"/>
          <path id="Path_2329" data-name="Path 2329" d="M420.087,168.694a3.828,3.828,0,0,0,2.08-.562,1.427,1.427,0,0,0,.751-1.127,1.412,1.412,0,0,0-.751-1.123,4.126,4.126,0,0,0-4.156,0A1.412,1.412,0,0,0,417.26,167a1.427,1.427,0,0,0,.751,1.127,3.822,3.822,0,0,0,2.076.562Z" transform="translate(-414.056 -164.878)" opacity="0.15"/>
        </g>
      </g>
    </g>
    <g id="freepik--speech-bubbles--inject-3" transform="translate(38.432 48.469)">
      <g id="freepik--speech-bubble--inject-3" transform="translate(59.061)">
        <g id="freepik--speech-bubble--inject-3-2" data-name="freepik--speech-bubble--inject-3">
          <path id="Path_2330" data-name="Path 2330" d="M251.027,48.546l13.726,9.045a.728.728,0,0,1,.278.549V69.115a.723.723,0,0,1-.278.544l-.98.647a.542.542,0,0,1-.552,0l-13.738-9.05a.738.738,0,0,1-.274-.549V49.717a.7.7,0,0,1,.278-.54l.987-.634a.541.541,0,0,1,.552,0Z" transform="translate(-249.21 -48.469)"/>
          <path id="Path_2331" data-name="Path 2331" d="M263.488,71.517v-11a.728.728,0,0,0-.278-.549l-13.726-9.028c-.15-.1-.274-.021-.274.18V62.086a.738.738,0,0,0,.274.549l13.726,9.054C263.364,71.792,263.488,71.71,263.488,71.517Z" transform="translate(-249.21 -49.855)"/>
          <path id="Path_2332" data-name="Path 2332" d="M263.488,71.517v-11a.728.728,0,0,0-.278-.549l-13.726-9.028c-.15-.1-.274-.021-.274.18V62.086a.738.738,0,0,0,.274.549l13.726,9.054C263.364,71.792,263.488,71.71,263.488,71.517Z" transform="translate(-249.21 -49.855)"/>
          <path id="Path_2333" data-name="Path 2333" d="M286.5,82.746a.558.558,0,0,0,.556,0l.987-.647a.723.723,0,0,0,.278-.544V70.572a.665.665,0,0,0-.09-.322l-1.543,1.012a.73.73,0,0,1,.083.313v11C286.778,82.75,286.661,82.853,286.5,82.746Z" transform="translate(-272.5 -60.913)" opacity="0.2"/>
          <path id="Path_2334" data-name="Path 2334" d="M249.22,49.664c.023-.159.135-.214.27-.124l13.726,9.045a.629.629,0,0,1,.2.236l1.539-1a.593.593,0,0,0-.191-.227l-13.726-9.045a.542.542,0,0,0-.552,0l-.969.626a.707.707,0,0,0-.293.489Z" transform="translate(-249.216 -48.472)" fill="#fff" opacity="0.4"/>
          <path id="Path_2335" data-name="Path 2335" d="M289.544,83.321l1.5-.977a.3.3,0,0,0,.121-.211.319.319,0,0,0-.068-.239l-2.347-3.344-1.5.986,2.343,3.344a.325.325,0,0,1,.063.233.3.3,0,0,1-.112.208Z" transform="translate(-272.968 -65.655)"/>
          <path id="Path_2336" data-name="Path 2336" d="M289.544,83.321l1.5-.977a.3.3,0,0,0,.121-.211.319.319,0,0,0-.068-.239l-2.347-3.344-1.5.986,2.343,3.344a.325.325,0,0,1,.063.233.3.3,0,0,1-.112.208Z" transform="translate(-272.968 -65.655)" fill="#fff" opacity="0.4"/>
          <path id="Path_2337" data-name="Path 2337" d="M287.24,80.85l2.347,3.344a.312.312,0,0,1,.059.3.254.254,0,0,1-.217.184l-2.189.27Z" transform="translate(-272.962 -66.969)"/>
        </g>
        <path id="Path_2338" data-name="Path 2338" d="M263.767,68.624c0,.429-.27.574-.6.352l-7.625-5.016a1.563,1.563,0,0,1-.6-1.166c0-.429.27-.574.6-.352l7.625,5.024a1.562,1.562,0,0,1,.6,1.157Z" transform="translate(-252.789 -56.393)" fill="#fafafa"/>
        <path id="Path_2339" data-name="Path 2339" d="M265.475,77.627c0,.429-.27.574-.6.352l-9.334-6.139a1.563,1.563,0,0,1-.6-1.166c0-.429.27-.574.6-.352l9.326,6.143A1.56,1.56,0,0,1,265.475,77.627Z" transform="translate(-252.789 -60.895)" fill="#fafafa"/>
      </g>
      <g id="freepik--speech-bubble--inject-3-3" data-name="freepik--speech-bubble--inject-3" transform="translate(0 6.74)">
        <g id="freepik--speech-bubble--inject-3-4" data-name="freepik--speech-bubble--inject-3">
          <path id="Path_2340" data-name="Path 2340" d="M120.436,114.55l-1.5-3.164,1.186-3.91v-2.4l-3.631,2.4v2.392l1.558,3.087a.233.233,0,0,0,.109.107h0Z" transform="translate(-107.258 -87.551)"/>
          <path id="Path_2341" data-name="Path 2341" d="M120.436,114.55l-1.5-3.164,1.186-3.91v-2.4l-3.631,2.4v2.392l1.558,3.087a.233.233,0,0,0,.109.107h0Z" transform="translate(-107.258 -87.551)" opacity="0.2"/>
          <path id="Path_2342" data-name="Path 2342" d="M114.464,67.228a2.852,2.852,0,0,0-1.089-2.143l-.886-.583a2.133,2.133,0,0,0-2.178,0L92.989,75.909A2.839,2.839,0,0,0,91.9,78.052V90.176a2.839,2.839,0,0,0,1.089,2.143l.886.587a2.152,2.152,0,0,0,2.178,0l7.374-4.9,1.558,3.078a.226.226,0,0,0,.222.132.24.24,0,0,0,.2-.175l1.644-5.427,6.319-4.124a2.852,2.852,0,0,0,1.089-2.143Z" transform="translate(-91.9 -64.197)"/>
          <path id="Path_2343" data-name="Path 2343" d="M91.9,107.019a2.839,2.839,0,0,0,1.089,2.143l.886.587a2.171,2.171,0,0,0,1.99.1c-.511.223-.9-.107-.9-.819V96.915a2.763,2.763,0,0,1,.319-1.222L92.219,93.67A2.8,2.8,0,0,0,91.9,94.9Z" transform="translate(-91.9 -81.032)" opacity="0.2"/>
          <path id="Path_2344" data-name="Path 2344" d="M115.016,66.869c-.128-.527-.548-.694-1.051-.364l-17.3,11.416a2.4,2.4,0,0,0-.751.93l-3.06-2.019a2.375,2.375,0,0,1,.751-.926l17.316-11.42a2.152,2.152,0,0,1,2.178,0l.89.587a2.8,2.8,0,0,1,1.032,1.8Z" transform="translate(-92.493 -64.19)" fill="#fff" opacity="0.4"/>
        </g>
        <path id="Path_2345" data-name="Path 2345" d="M109.423,103.816a3.785,3.785,0,0,0-1.453,2.872c0,1.059.65,1.488,1.453.956a3.785,3.785,0,0,0,1.453-2.872C110.876,103.713,110.234,103.284,109.423,103.816Z" transform="translate(-101.937 -86.698)" fill="#fafafa"/>
        <path id="Path_2346" data-name="Path 2346" d="M123.683,95.566a3.8,3.8,0,0,0-1.453,2.872c0,1.055.653,1.483,1.453.956a3.781,3.781,0,0,0,1.464-2.872C125.147,95.463,124.486,95.034,123.683,95.566Z" transform="translate(-110.843 -81.985)" fill="#fafafa"/>
        <path id="Path_2347" data-name="Path 2347" d="M137.953,87.309a3.8,3.8,0,0,0-1.453,2.872c0,1.059.65,1.488,1.453.96a3.8,3.8,0,0,0,1.453-2.872C139.406,87.211,138.756,86.782,137.953,87.309Z" transform="translate(-119.755 -77.27)" fill="#fafafa"/>
      </g>
    </g>
  </g>
</svg>
